<?xml version="1.0" encoding="utf-8"?>
<!DOCTYPE svg PUBLIC "-//W3C//DTD SVG 1.0//EN" "http://www.w3.org/TR/2001/REC-SVG-20010904/DTD/svg10.dtd">
<svg version="1.0" xmlns="http://www.w3.org/2000/svg" width="380px" height="380px" viewBox="0 0 380 380" preserveAspectRatio="xMidYMid meet">
 <g fill="#000000">
  <path d="M0 190 l0 -190 190 0 190 0 0 190 0 190 -190 0 -190 0 0 -190z m212.30 157.95 c21.35 -2.95 40.45 -18.20 48.05 -38.40 2.35 -6.25 4.60 -16.55 4.60 -21.30 0.05 -6.10 -1.75 -14.15 -4.40 -19.60 -0.60 -1.15 -1.05 -2.30 -1.05 -2.50 0 -0.20 -0.65 -1.30 -1.40 -2.45 -0.75 -1.10 -2.25 -3.35 -3.30 -4.95 -3.95 -5.95 -7.30 -9.15 -14.55 -13.95 -3 -2 -6.50 -4.15 -7.75 -4.80 -1.25 -0.65 -3.50 -2 -5 -3 -5.70 -3.90 -12.30 -7.65 -17.20 -9.85 -7.40 -3.30 -16.60 -8.30 -20.30 -11.10 -3.85 -2.90 -9.15 -8.35 -11.45 -11.70 -2.50 -3.70 -5.50 -10.40 -6.60 -14.90 -0.95 -3.60 -1.05 -5.20 -0.85 -14.15 0.20 -9.80 0.25 -10.20 1.80 -14.75 3.20 -9.35 7.50 -15.75 14.80 -22.15 8.75 -7.65 16.95 -10.90 29.40 -11.70 3.25 -0.20 6.85 -0.10 9.45 0.25 5.05 0.70 20.05 4.45 25.95 6.45 14.50 4.90 34.95 13.05 42.90 17.05 l4.10 2.05 0 2.95 c0 5.75 2.10 8.20 10 11.75 7.60 3.45 13.90 7.75 19.40 13.30 l3 3.05 3.30 -2.40 3.30 -2.35 -1.90 -0.55 c-3.10 -0.95 -8.65 -4.10 -11.95 -6.80 -3.05 -2.45 -3.15 -2.65 -3.15 -4.90 0 -1.25 -0.35 -2.75 -0.75 -3.25 -0.75 -0.95 -0.75 -0.95 -0.75 0.10 0 0.95 -0.30 1.10 -1.95 1.10 -1.45 0 -2.35 -0.35 -3.50 -1.45 -1.35 -1.30 -1.55 -1.75 -1.55 -4.20 0 -2.70 0.05 -2.80 1.45 -2.95 l1.50 -0.15 -2.10 -3.35 -2.10 -3.35 -5.15 -0.05 c-7.50 0 -8.80 -0.85 -18.50 -11.50 l-2.05 -2.25 -0.05 1.65 c0 1.50 -0.10 1.60 -1.75 1.60 -2.65 0 -5.55 -1.70 -9.60 -5.65 -3 -2.90 -3.65 -3.30 -3.65 -2.45 0 0.95 -0.25 1.10 -2.10 1.10 -2.85 -0.05 -6.20 -1.60 -8.75 -4.15 -1.20 -1.10 -2.15 -1.80 -2.15 -1.45 0 1.15 -2.95 0.60 -9.30 -1.70 -6.95 -2.50 -15 -5.05 -20.45 -6.45 -8.40 -2.20 -15 -7.05 -17.90 -13.10 -1.60 -3.40 -1.60 -3.45 -1.60 -11.15 0.05 -7.45 0.10 -7.95 1.70 -12.75 3.65 -10.90 10.70 -22.90 21 -35.70 l4.15 -5.20 -30.15 0.30 c-16.60 0.20 -34.25 0.55 -39.20 0.85 -4.95 0.25 -13.15 0.75 -18.25 1 -9.65 0.55 -30.35 2.20 -37.25 3 -2.20 0.20 -5.80 0.55 -8 0.75 -2.20 0.15 -7.05 0.75 -10.75 1.25 -3.70 0.50 -8.75 1.20 -11.25 1.50 -10.20 1.25 -37.15 6.20 -37.85 6.90 -0.25 0.25 1.65 0.15 4.20 -0.25 10.85 -1.45 26.75 -3.15 34.65 -3.65 4.70 -0.30 10.20 -0.75 12.25 -1 17.40 -2.25 83.25 -2.35 117.90 -0.15 l5.10 0.30 0 1.65 c0 0.90 -0.15 1.75 -0.40 1.90 -0.20 0.10 -5.20 0.80 -11.10 1.50 -26.60 3.20 -54.55 7.75 -76.50 12.50 -3.15 0.70 -9.45 2.05 -14 3.05 -7.70 1.65 -31.70 8.25 -31.35 8.60 0.20 0.20 15.65 -3.05 20.75 -4.35 2.15 -0.55 6.90 -1.45 10.60 -2.05 3.70 -0.55 8.80 -1.35 11.25 -1.75 18.30 -2.80 48.30 -5.30 72.40 -6 l11.85 -0.30 0 1.75 c0 1.95 1.15 1.45 -12.25 5.35 -28.20 8.25 -57.70 19.50 -78.25 29.90 -9.75 4.95 -13 6.95 -6.25 3.85 19.80 -9.15 36.55 -15.05 61 -21.50 9.50 -2.50 25.30 -5.75 28 -5.75 l2.75 0 0 1.95 c0 1.40 -0.75 3.50 -2.45 6.90 -5.25 10.55 -13.45 30 -15.90 37.80 -0.80 2.60 -1.30 3.20 -5.40 6.70 -5.60 4.75 -8.80 8.55 -12.40 14.55 -9.05 15.05 -10.85 31.65 -5.25 47.60 4.25 12 11.75 22.15 22.15 29.90 1.65 1.20 8.20 4.75 14.50 7.85 12.50 6.10 21.20 11.10 33.25 19.05 9.65 6.35 13.25 9.90 16.05 15.95 3.25 6.95 4.55 12.75 4.60 20.75 0.10 15.45 -5.50 28.90 -15.95 38.50 -5.30 4.80 -11.55 8.35 -19.20 10.75 -3.45 1.10 -5.55 1.40 -11.05 1.60 -13.75 0.55 -20.65 -1.45 -34.55 -9.95 -8.65 -5.30 -15 -10.85 -31.90 -27.95 -14.85 -14.95 -19.30 -18.75 -29.35 -24.90 -7.75 -4.75 -14.50 -7.40 -22.30 -8.80 -3.40 -0.60 -4.45 -0.60 -8.20 0.05 -4.95 0.85 -9.90 2.80 -13.15 5.10 -4.90 3.55 -10.10 9.50 -12.10 13.85 l-0.60 1.40 -5.80 -0.25 -5.75 -0.25 5.15 1 5.15 1 -0.35 4.85 c-0.20 3.30 -0.15 5.75 0.30 7.55 1.35 5.85 5.45 12.90 10 17.20 l2.10 2 -2.30 -3.35 c-4.60 -6.60 -6.80 -13.10 -6.80 -20.05 0 -5.20 0.50 -6.85 2.15 -6.85 4.75 0 32 7.75 46.50 13.25 23.70 8.95 41 17.75 59.95 30.50 10.10 6.85 13.70 8.80 20.60 11.30 7.20 2.60 17.05 3.55 25.10 2.40z m15.30 -131.65 c2.70 -0.65 6.40 -1.95 8.25 -2.85 3.40 -1.55 8.75 -4.90 9.05 -5.55 0.10 -0.25 0.55 -0.40 1 -0.40 1.35 -0.05 5.60 -4.50 5.60 -5.85 0 -0.25 0.55 -1.20 1.20 -2.15 4.25 -6.30 7.05 -13.65 6.25 -16.50 -0.20 -0.70 -0.35 -2.20 -0.40 -3.30 -0.05 -1.70 0.15 -2.15 1 -2.35 0.95 -0.25 1 -0.50 0.70 -3.45 -0.80 -7.55 -2.55 -12.90 -6.20 -18.80 -5.50 -9 -13.95 -15.50 -24.50 -18.80 -5.80 -1.85 -10.20 -2.20 -16.65 -1.45 -4.85 0.60 -5.95 0.90 -11.10 3.40 -3.70 1.80 -7.05 3.85 -9.35 5.80 -4.15 3.45 -9.95 10.85 -11.80 14.95 -0.65 1.50 -1.65 3.65 -2.15 4.75 -1.15 2.55 -1.75 8.75 -0.80 8.75 0.35 0 0.95 0.60 1.35 1.40 0.85 1.65 1.70 2.60 2.35 2.60 0.25 0 0.75 0.35 1.10 0.75 1.10 1.30 1.50 0.80 1.50 -1.90 0 -1.45 0.25 -2.90 0.60 -3.25 0.35 -0.35 1.65 -0.60 3 -0.60 2.25 0 2.40 0.10 3.25 1.85 0.45 1.05 1.65 2.55 2.60 3.40 2.90 2.50 3.30 3.10 4.45 6.35 1.20 3.35 4.95 8.65 7.80 11 3.80 3.15 5.80 3.65 14.05 3.60 6.70 -0.05 7.60 0.05 8.30 0.90 0.45 0.50 1.05 0.90 1.30 0.90 0.55 0 1.65 2.20 1.65 3.25 0 0.40 0.45 0.75 1 0.75 0.80 0 1 0.35 1 1.75 0 1.55 -0.15 1.75 -1.25 1.75 -0.70 0 -1.25 0.20 -1.25 0.45 0 0.20 -1.25 0.80 -2.80 1.30 -2.35 0.75 -4.05 0.85 -10.65 0.60 -9.10 -0.30 -11.20 -0.90 -18.15 -5.45 -6.05 -3.95 -11.45 -11.35 -12.40 -16.85 -0.35 -2.25 -0.40 -2.25 -0.45 1.10 -0.05 2.60 -0.20 3.35 -0.80 3.35 -0.55 0 -0.75 0.60 -0.75 2.50 0 1.40 0.25 2.50 0.50 2.50 0.30 0 0.50 0.40 0.50 0.85 0 0.45 0.35 1.25 0.80 1.75 1.10 1.15 1.60 5.85 0.70 6.40 -0.50 0.30 -0.15 0.90 1.25 2.20 1.40 1.35 2.30 1.80 3.60 1.80 1.10 0 4 1.10 8.05 3.15 11.25 5.60 17.15 6.35 27.70 3.65z"/>
  <path d="M132.55 307.45 c-15.45 -6.85 -42.65 -14.35 -64.05 -17.65 l-7.25 -1.10 -0.15 -2.10 c-0.15 -2 0 -2.30 2.90 -5.30 3.20 -3.35 7.35 -5.85 12.50 -7.60 2.25 -0.80 4.20 -0.95 10.75 -0.95 7.65 0 8.20 0.10 12.75 1.60 9.35 3.20 17.55 8.85 27.85 19.35 9.20 9.35 10.65 11.15 10.65 13.20 0 1.55 -0.10 1.60 -1.85 1.55 -1.05 0 -2.90 -0.45 -4.10 -1z"/>
  <path d="M240 195.45 c0 -2.05 1.15 -7.95 1.55 -7.95 0.25 0 0.45 -0.35 0.45 -0.75 0 -0.45 0.35 -0.90 0.75 -1.05 0.40 -0.20 0.75 -0.75 0.75 -1.25 0 -0.50 0.35 -0.95 0.75 -0.95 0.40 0 0.75 -0.35 0.75 -0.80 0 -0.45 0.45 -0.90 1 -1.05 0.55 -0.15 1 -0.45 1 -0.70 0 -0.25 0.90 -0.45 2 -0.45 l2 0 0 2.50 c0 1.35 -0.30 3.20 -0.70 4.10 -0.40 0.90 -0.95 2.35 -1.25 3.15 -0.35 0.85 -1.25 2.30 -2.05 3.25 -0.85 0.95 -1.50 2.05 -1.50 2.40 0 0.40 -0.90 0.60 -2.75 0.60 -2.45 0 -2.75 -0.10 -2.75 -1.05z"/>
  <path d="M183 168.75 c0 -1.65 0.10 -1.75 1.75 -1.75 1.65 0 1.75 0.10 1.75 1.75 0 1.65 -0.10 1.75 -1.75 1.75 -1.65 0 -1.75 -0.10 -1.75 -1.75z"/>
  <path d="M227.15 147.65 c-0.35 -0.10 -0.65 -1 -0.65 -1.95 0 -1.70 0 -1.70 2.25 -1.70 l2.25 0 0 2 c0 1.95 -0.05 2 -1.60 1.95 -0.90 0 -1.95 -0.15 -2.25 -0.30z"/>
 </g>
 <g fill="#0b0000">
  <path d="M194.25 349.50 c0.85 -0.35 0.75 -0.45 -0.60 -0.45 -2.85 -0.10 -1.80 -1.05 1.10 -1.05 2 0 2.75 0.20 2.75 0.70 0 0.70 -1.55 1.30 -3.25 1.25 l-1 0 1 -0.45z"/>
  <path d="M186.30 347.40 c0.15 -0.20 -0.10 -0.40 -0.50 -0.40 -0.40 0 -0.90 -0.20 -1.05 -0.50 -0.20 -0.30 0.40 -0.50 1.45 -0.50 1.40 0 1.80 0.20 1.80 0.90 0 0.55 -0.35 0.90 -0.95 0.90 -0.55 0 -0.85 -0.20 -0.75 -0.40z"/>
  <path d="M231.50 342.95 c0 -0.75 0.35 -0.95 1.85 -0.95 1.80 0 1.80 0 0.85 0.90 -1.30 1.25 -2.70 1.30 -2.70 0.05z"/>
  <path d="M170.75 340.05 c0.15 -0.10 -0.15 -0.50 -0.65 -0.85 -0.75 -0.60 -0.70 -0.65 0.80 -0.70 1.25 0 1.60 0.20 1.60 0.95 0 0.65 -0.30 0.95 -1 0.90 -0.50 -0.05 -0.85 -0.15 -0.75 -0.30z"/>
  <path d="M213 337.55 c0 -0.30 0.35 -0.55 0.75 -0.55 0.40 0 0.75 -0.35 0.75 -0.75 0 -0.40 0.35 -0.75 0.80 -0.75 0.40 0 0.60 0.25 0.40 0.55 -0.20 0.40 0.05 0.45 0.80 0.20 0.90 -0.30 1.05 -0.15 0.90 0.60 -0.10 0.65 -0.70 0.95 -2.30 1.05 -1.25 0.10 -2.10 -0.05 -2.10 -0.35z"/>
  <path d="M193 336.70 c0 -0.55 0.25 -0.70 0.80 -0.50 0.45 0.15 1.20 0.30 1.75 0.30 0.50 0 0.95 0.25 0.95 0.50 0 0.30 -0.80 0.50 -1.75 0.50 -1.25 0 -1.75 -0.20 -1.75 -0.80z"/>
  <path d="M165.80 336.25 c-0.95 -0.70 -0.95 -0.75 0.35 -0.75 0.85 0 1.35 0.25 1.35 0.75 0 0.95 -0.45 0.95 -1.70 0z"/>
  <path d="M85.15 333.65 c-1 -0.40 -0.75 -1.45 0.35 -1.45 0.50 0 0.85 0.10 0.70 0.25 -0.10 0.15 0.30 0.55 0.90 0.90 l1.15 0.60 -1.25 0 c-0.70 0 -1.55 -0.15 -1.85 -0.30z"/>
  <path d="M160.50 332.75 l-1.70 -1.25 1.35 0 c0.75 0 1.35 0.25 1.35 0.50 0 0.30 0.35 0.50 0.75 0.50 0.40 0 0.75 0.35 0.75 0.75 0 1 -0.45 0.90 -2.50 -0.50z"/>
  <path d="M226.75 332.20 c1.95 -1 3.80 -2 4.15 -2.30 0.45 -0.40 0.60 -0.25 0.60 0.50 0 1.15 -1.35 2.10 -2.95 2.10 -0.60 0 -1.05 0.35 -1.05 0.75 0 0.55 -0.55 0.75 -2.10 0.75 l-2.15 0 3.50 -1.80z"/>
  <path d="M180.70 332.25 c-0.20 -0.40 -0.60 -0.75 -1 -0.75 -0.40 0 -0.70 -0.35 -0.70 -0.75 0 -1.05 0.40 -0.95 3.25 0.75 l2.50 1.50 -1.90 0 c-1.20 0 -2 -0.25 -2.15 -0.75z"/>
  <path d="M79.30 331.55 c0.15 -0.15 -0.25 -0.50 -0.85 -0.85 -1.05 -0.55 -1 -0.60 0.75 -0.80 1 -0.10 1.95 -0.05 2.10 0.20 0.15 0.20 0.60 0.20 1.05 0.05 0.50 -0.20 0.70 -0.10 0.45 0.25 -0.15 0.30 0.10 0.80 0.55 1.05 0.70 0.45 0.35 0.55 -1.70 0.45 -1.40 -0.10 -2.45 -0.25 -2.35 -0.35z"/>
  <path d="M228 330.55 c0 -0.50 1.50 -1.20 1.85 -0.85 0.15 0.10 -0.25 0.45 -0.80 0.80 -0.60 0.30 -1.05 0.35 -1.05 0.05z"/>
  <path d="M73.75 328.10 c-0.15 -0.40 -0.60 -0.55 -1.05 -0.40 -0.40 0.15 -0.65 0.10 -0.50 -0.15 0.15 -0.25 -0.25 -0.80 -0.95 -1.25 -1.40 -0.90 -1.95 -1.05 -1.50 -0.30 0.15 0.30 0.05 0.50 -0.25 0.50 -0.35 0 -0.50 -0.35 -0.30 -0.75 0.15 -0.40 -0.10 -0.95 -0.60 -1.20 -0.70 -0.40 -0.55 -0.50 0.80 -0.55 1.30 0 1.75 0.25 1.95 1 0.15 0.65 0.70 1 1.45 1 0.65 0 1.20 0.25 1.20 0.50 0 0.30 0.45 0.50 1 0.50 0.65 0 1 0.35 1 0.95 0 1.15 -1.80 1.25 -2.25 0.15z"/>
  <path d="M64.65 321.75 c0.05 -0.25 -0.25 -0.40 -0.65 -0.35 -0.40 0.10 -0.60 0 -0.40 -0.20 0.20 -0.20 0.15 -0.65 -0.15 -1.05 -0.80 -0.95 1.40 -0.90 2.35 0.05 1 1.05 0.85 2.10 -0.25 2.10 -0.55 0 -0.95 -0.25 -0.90 -0.55z"/>
  <path d="M66.50 317.90 c0.05 -1.40 0.10 -1.50 0.55 -0.75 0.30 0.45 0.80 0.70 1.10 0.55 0.35 -0.20 0.45 -0.20 0.25 0.05 -0.20 0.20 -0.15 0.70 0.15 1.10 0.45 0.50 0.30 0.65 -0.75 0.65 -1.15 0 -1.30 -0.20 -1.30 -1.60z"/>
  <path d="M59.85 316.10 c-0.25 -0.35 -0.60 -0.50 -0.85 -0.35 -0.20 0.15 -0.35 -0.15 -0.30 -0.65 0 -0.45 -0.20 -0.80 -0.55 -0.75 -0.40 0.10 -0.50 -0.20 -0.30 -0.70 0.20 -0.45 0.10 -0.70 -0.15 -0.50 -0.30 0.15 -0.55 -0.15 -0.55 -0.70 -0.10 -1.35 1.70 -1.25 2.15 0.20 0.20 0.60 0.55 1.25 0.80 1.40 0.25 0.20 0.40 0.85 0.30 1.50 -0.10 0.85 -0.30 1 -0.55 0.55z"/>
  <path d="M115.25 310 c-0.15 -0.25 -0.15 -0.50 0.10 -0.55 0.20 0 -0.15 -0.25 -0.85 -0.60 l-1.25 -0.55 1.40 -0.20 c1.85 -0.25 2.85 0.15 2.85 1.15 0 0.60 -0.30 0.75 -1.05 0.50 -0.75 -0.25 -0.95 -0.20 -0.75 0.20 0.20 0.30 0.25 0.55 0.10 0.55 -0.15 0 -0.40 -0.20 -0.55 -0.50z"/>
  <path d="M130.50 305.30 c0 -0.60 0.30 -0.65 1.50 -0.25 0.85 0.30 1.50 0.65 1.50 0.75 0 0.10 -0.65 0.20 -1.50 0.20 -1 0 -1.50 -0.25 -1.50 -0.70z"/>
  <path d="M123 303 c0 -0.25 -0.45 -0.50 -0.95 -0.50 -0.55 0 -1.15 -0.20 -1.30 -0.50 -0.15 -0.25 -0.95 -0.50 -1.80 -0.50 -1.70 0 -2 -1.25 -0.40 -1.65 0.60 -0.15 0.90 -0.15 0.75 0.05 -0.45 0.40 4.30 2.15 5.10 1.85 0.35 -0.15 0.50 0 0.35 0.25 -0.15 0.30 0.05 0.50 0.45 0.50 0.40 0 0.90 0.25 1.05 0.50 0.20 0.30 -0.40 0.50 -1.45 0.50 -1 0 -1.80 -0.20 -1.80 -0.50z"/>
  <path d="M143.50 300.70 c0 -1.05 0.15 -1.20 0.65 -0.75 0.40 0.30 0.80 0.45 0.90 0.30 0.15 -0.10 0.25 0.25 0.30 0.75 0.05 0.70 -0.25 1 -0.90 1 -0.70 0 -0.95 -0.35 -0.95 -1.30z"/>
  <path d="M52.50 297.90 c-0.40 -0.65 -0.80 -1.80 -0.80 -2.65 -0.05 -0.80 0 -1.20 0.15 -0.85 0.50 1.40 1.25 0.50 1.05 -1.35 -0.10 -1.10 0 -1.85 0.20 -1.75 0.25 0.15 0.40 0.05 0.40 -0.20 0 -0.25 -0.85 -0.65 -1.85 -0.95 l-1.90 -0.50 2.40 -0.10 2.35 -0.05 0 1.75 c0 0.95 -0.15 1.75 -0.35 1.75 -0.25 0 -0.30 1.35 -0.25 3 0.20 3.20 -0.20 3.70 -1.40 1.90z"/>
  <path d="M252.55 295.90 c0 -0.65 0.20 -1.60 0.45 -2.15 0.35 -0.75 0.45 -0.50 0.45 1.15 0.05 1.15 -0.15 2.10 -0.45 2.10 -0.25 0 -0.50 -0.50 -0.45 -1.10z"/>
  <path d="M73 295.50 c0.60 -0.40 0.55 -0.50 -0.35 -0.50 -0.60 0 -1.25 -0.20 -1.40 -0.50 -0.20 -0.30 0.40 -0.50 1.45 -0.50 1.45 0 1.80 0.20 1.80 1 0 0.70 -0.35 1 -1.10 1 -0.95 0 -1 -0.10 -0.40 -0.50z"/>
  <path d="M97 294.80 c0 -0.35 0.45 -0.80 1 -0.95 0.55 -0.15 0.90 -0.05 0.70 0.20 -0.15 0.25 0.20 0.45 0.75 0.45 0.60 0 1.05 0.25 1.05 0.50 0 0.30 -0.80 0.50 -1.75 0.50 -1.15 0 -1.75 -0.25 -1.75 -0.70z"/>
  <path d="M82.50 291.20 c0 -0.55 0.25 -0.70 0.80 -0.50 0.45 0.15 1.20 0.30 1.75 0.30 0.50 0 0.95 0.25 0.95 0.50 0 0.30 -0.80 0.50 -1.75 0.50 -1.25 0 -1.75 -0.20 -1.75 -0.80z"/>
  <path d="M46 289.55 c0 -0.30 -0.35 -0.55 -0.75 -0.55 -0.40 0 -0.75 -0.20 -0.75 -0.50 0 -0.25 0.90 -0.50 2 -0.50 1.45 0 2 0.20 2 0.75 0 0.40 -0.20 0.75 -0.45 0.75 -0.25 0 -0.80 0.15 -1.25 0.30 -0.45 0.15 -0.80 0.05 -0.80 -0.25z"/>
  <path d="M69 288.80 c0 -0.55 0.45 -0.65 1.90 -0.45 3.55 0.55 4 1.10 1 1.10 -2.20 0.05 -2.90 -0.10 -2.90 -0.65z"/>
  <path d="M117.80 286.95 c-0.70 -0.55 -1.50 -0.85 -1.80 -0.70 -0.25 0.15 -1 -0.05 -1.60 -0.45 -0.60 -0.45 -0.85 -0.80 -0.55 -0.80 0.35 0 0.75 0.25 0.90 0.50 0.15 0.30 0.60 0.50 0.90 0.50 0.35 0 -0.05 -0.60 -0.80 -1.25 -1.40 -1.25 -1.40 -1.25 -0.25 -1.25 1.45 0.05 2.90 1.10 2.90 2.20 0 0.45 0.40 0.80 1 0.80 0.55 0 1 0.35 1 0.75 0 0.95 -0.10 0.95 -1.70 -0.30z"/>
  <path d="M45.50 286.30 c0 -0.80 1.25 -1.20 2.65 -0.90 1.60 0.40 0.95 1.60 -0.90 1.60 -1.20 0 -1.75 -0.25 -1.75 -0.70z"/>
  <path d="M35.50 285.80 c0 -1.20 3.90 -1.65 5.90 -0.70 1.95 1 1.20 1.40 -2.40 1.40 -2.70 0 -3.50 -0.15 -3.50 -0.70z"/>
  <path d="M252.50 280.45 c0 -0.65 -0.20 -0.90 -0.60 -0.65 -0.40 0.25 -0.45 0.10 -0.25 -0.50 0.20 -0.50 0.35 -1.10 0.35 -1.35 0 -0.25 0.35 -0.45 0.75 -0.45 0.55 0 0.75 0.55 0.75 2 0 1.10 -0.20 2 -0.50 2 -0.25 0 -0.50 -0.45 -0.50 -1.05z"/>
  <path d="M106.75 279.45 l-1.50 -0.95 1.65 0 c1.25 0 1.60 0.20 1.60 1 0 0.55 -0.05 1 -0.10 0.95 -0.10 0 -0.80 -0.45 -1.65 -1z"/>
  <path d="M109 272.60 c0 -0.55 0.35 -0.90 0.95 -0.90 0.55 0 0.90 0.20 0.75 0.40 -0.10 0.20 0.20 0.55 0.65 0.85 0.75 0.45 0.65 0.50 -0.70 0.55 -1.25 0 -1.65 -0.20 -1.65 -0.90z"/>
  <path d="M74 267.55 c1.75 -1 3 -1.15 3 -0.35 0 0.60 -0.50 0.80 -1.85 0.80 -1.30 -0.05 -1.65 -0.15 -1.15 -0.45z"/>
  <path d="M96.50 267.50 c0 -0.60 1.35 -0.60 2.75 0 0.80 0.35 0.65 0.45 -0.85 0.45 -1.05 0.05 -1.90 -0.15 -1.90 -0.45z"/>
  <path d="M225.80 248.45 c-2.60 -1.70 -2.80 -1.95 -1.65 -1.95 0.75 0 1.35 0.25 1.35 0.50 0 0.30 0.55 0.50 1.25 0.50 0.70 0 1.25 0.25 1.25 0.50 0 0.30 0.35 0.50 0.75 0.50 0.40 0 0.75 0.45 0.75 1 0 1.35 -0.25 1.25 -3.70 -1.05z"/>
  <path d="M249 249.75 c0 -0.40 0.20 -0.75 0.45 -0.75 0.25 0 0.70 0.35 1.05 0.75 0.50 0.65 0.45 0.75 -0.45 0.75 -0.60 0 -1.05 -0.30 -1.05 -0.75z"/>
  <path d="M217.35 243.30 c0.20 -0.30 -0.05 -0.30 -0.65 -0.10 -0.50 0.20 -0.75 0.20 -0.55 0 0.20 -0.20 -0.05 -0.65 -0.55 -1 -0.75 -0.60 -0.75 -0.65 0.50 -0.70 1.95 0 2.90 0.50 2.90 1.50 0 0.60 -0.35 0.90 -0.95 0.85 -0.55 0 -0.85 -0.25 -0.70 -0.55z"/>
  <path d="M190.80 230.05 c0.10 -0.15 -0.30 -0.55 -0.90 -0.90 -1.10 -0.60 -1.05 -0.60 0.75 -0.65 1.45 0 1.85 0.20 1.85 0.90 0 0.55 -0.35 0.90 -1 0.90 -0.50 0 -0.85 -0.10 -0.70 -0.25z"/>
  <path d="M217 229 c0 -1 0.05 -1 1.40 -0.15 0.75 0.45 1.45 0.90 1.55 1 0.10 0.10 -0.50 0.15 -1.35 0.15 -1.25 0 -1.60 -0.20 -1.60 -1z"/>
  <path d="M182.30 224.45 c0.10 -0.20 -0.50 -0.95 -1.35 -1.65 l-1.55 -1.30 1.35 0 c0.70 0 1.40 0.35 1.55 0.75 0.20 0.40 0.60 0.75 1 0.75 0.40 0 0.70 0.45 0.70 0.95 0 0.65 -0.30 0.95 -0.95 0.90 -0.55 0 -0.90 -0.20 -0.75 -0.40z"/>
  <path d="M179 223.40 c0 -0.55 1.40 -0.50 1.75 0.05 0.15 0.30 -0.20 0.45 -0.75 0.40 -0.55 -0.05 -1 -0.25 -1 -0.45z"/>
  <path d="M211 218.75 c-5.10 -0.95 -5.85 -1.20 -12.70 -4.65 -5.30 -2.65 -6.10 -2.90 -6.75 -2.25 -0.65 0.70 -0.80 0.65 -1.30 -0.05 -0.35 -0.45 -0.80 -0.80 -1.05 -0.80 -0.70 0 -3.40 -2.55 -4.65 -4.35 -0.60 -0.85 -1.50 -1.75 -2 -1.90 -0.55 -0.15 -1.05 -0.60 -1.20 -0.95 -0.30 -0.75 1.10 -0.90 2.05 -0.15 0.40 0.30 0.60 0.25 0.60 -0.20 0 -0.50 0.15 -0.50 0.60 -0.05 1.85 1.85 1.60 -1 -0.30 -3.60 -0.85 -1.10 -1.25 -2.50 -1.45 -4.85 -0.35 -4.05 -0.05 -5.60 1.10 -5.25 0.70 0.25 0.70 0.25 0.05 -0.30 -0.80 -0.70 -0.75 -2.90 0.05 -2.90 0.25 0 0.15 -0.75 -0.25 -1.70 -0.40 -0.95 -0.60 -1.80 -0.50 -1.95 0.70 -0.70 -2.25 -4.80 -3.45 -4.85 -0.60 0 -1.50 -1.05 -2.30 -2.60 -1.05 -2.05 -1.55 -1.70 -1.55 1.10 0 1.55 -0.20 2.50 -0.55 2.50 -0.60 0 -0.30 -7.85 0.35 -10.35 0.45 -1.60 1.70 -1.45 1.70 0.10 0 1.45 0.05 1.55 2.95 4.75 l2 2.25 0.05 -3.25 c0 -3.35 1.20 -8.35 2.80 -11.60 0.90 -1.90 2.30 -2.40 4.40 -1.60 1.10 0.40 1.05 5.10 -0.05 7.40 l-0.80 1.75 2.45 3.85 c2.05 3.25 2.85 4.10 4.65 5.05 0.05 0.05 0.70 1.50 1.35 3.25 1 2.75 1.15 2.95 1.15 1.55 0.05 -1.55 0.15 -1.65 1.75 -1.65 2.30 0 4.80 2.50 4.80 4.85 0 1.55 -0.10 1.65 -1.80 1.65 -0.95 0 -2.10 -0.35 -2.55 -0.75 -1.20 -1.20 -1.35 -0.50 -0.30 1.25 1.35 2.40 6.60 7.35 9 8.50 1.10 0.60 3.45 1.30 5.10 1.60 1.80 0.35 3.05 0.85 3.05 1.20 0 2.25 -9.40 0 -13.30 -3.20 -2.85 -2.35 -6.60 -7.65 -7.80 -11 -1.15 -3.25 -1.55 -3.85 -4.45 -6.35 -0.95 -0.85 -2.15 -2.35 -2.60 -3.40 -0.55 -1.10 -1.25 -1.85 -1.75 -1.85 -2.80 0 -2.80 4.10 0 9.80 0.55 1.15 0.85 2.50 0.70 3 -0.40 1.40 1.85 5.85 5.10 10.15 2.15 2.80 3.85 4.40 7.05 6.45 4.05 2.65 7.95 4.50 10.55 4.90 3.25 0.55 4 0.85 4 1.50 0 2.45 -12.90 -1.50 -16.80 -5.15 -0.70 -0.65 -1.45 -1.15 -1.75 -1.15 -0.25 0 -0.45 -0.65 -0.45 -1.50 0 -1.35 -0.15 -1.50 -1.50 -1.50 -1 0 -1.65 -0.30 -1.85 -0.85 -0.20 -0.50 -0.80 -1.25 -1.35 -1.70 -1 -0.80 -1.05 -0.80 -1.55 0.75 -0.40 1.15 -0.35 1.70 0.10 2.20 0.35 0.35 0.65 1.45 0.65 2.45 0 1.40 0.40 2.10 1.85 3.45 1 0.95 2.05 1.70 2.25 1.70 0.25 0 1 0.55 1.65 1.20 0.65 0.70 1.70 1.35 2.25 1.55 0.55 0.15 1 0.70 1 1.20 0 0.60 1.10 1.35 3.40 2.40 10.15 4.70 19.55 4.80 30.65 0.35 2.40 -0.95 4.45 -1.70 4.65 -1.70 0.20 0 0.80 -0.45 1.40 -1 0.60 -0.55 1.40 -1 1.75 -1 0.35 0 0.65 -0.20 0.65 -0.50 0 -0.25 0.30 -0.50 0.70 -0.50 0.40 0 0.80 -0.35 1 -0.75 0.15 -0.40 0.50 -0.75 0.75 -0.75 0.40 0 2 -1.55 7.20 -7.05 0.45 -0.55 0.85 -1.15 0.85 -1.40 0 -0.25 0.15 -0.55 0.40 -0.65 0.20 -0.05 0.95 -1.35 1.70 -2.85 1.10 -2.20 1.25 -2.85 0.75 -3.45 -0.40 -0.50 -0.65 -3.30 -0.80 -8.15 -0.15 -7.35 -0.15 -7.40 1.10 -8.65 0.85 -0.85 1.85 -1.30 2.85 -1.30 1.35 0 1.50 -0.15 1.50 -1.50 0 -1.80 1.25 -2.05 1.70 -0.35 0.35 1.40 0.40 5.05 0 6.05 -0.15 0.40 -0.60 0.60 -1 0.45 -0.85 -0.30 -0.85 -0.20 -0.15 2.60 1.10 4.40 -1.40 11.90 -6.35 19.25 -0.65 0.95 -1.20 1.90 -1.20 2.15 0 1.40 -4.25 5.80 -5.65 5.85 -0.50 0 -0.75 0.25 -0.60 0.50 0.15 0.30 0 0.50 -0.40 0.50 -0.40 0 -1.60 0.65 -2.75 1.45 -8.20 5.95 -22.55 9.20 -32.60 7.30z"/>
  <path d="M192.50 216.55 c0 -0.25 -0.45 -0.55 -1 -0.70 -0.55 -0.15 -1 -0.60 -1 -1.05 0 -0.45 -0.35 -0.80 -0.75 -0.80 -0.45 0 -0.90 -0.35 -1.05 -0.75 -0.20 -0.40 -0.55 -0.75 -0.90 -0.75 -0.75 0 -3.40 -2.40 -4.75 -4.35 -0.60 -0.85 -1.50 -1.70 -2 -1.90 -1 -0.30 -2.05 -2.25 -2.05 -3.90 0 -0.90 0.25 -0.75 1.35 0.90 1.85 2.80 7.40 8.45 10.65 10.90 3.85 2.85 3.85 2.85 2.60 2.85 -0.60 0 -1.10 -0.20 -1.10 -0.45z"/>
  <path d="M169.10 209.50 c-0.80 -1.30 -0.75 -1.50 0.15 -1.50 0.45 0 0.75 0.45 0.75 1.25 0 1.50 -0.10 1.55 -0.90 0.25z"/>
  <path d="M216.50 209 c0 -0.80 0.35 -1 1.75 -1 1.40 0 1.75 0.20 1.75 1 0 0.80 -0.35 1 -1.75 1 -1.40 0 -1.75 -0.20 -1.75 -1z"/>
  <path d="M226 208 c0 -0.30 0.60 -0.80 1.40 -1.15 1.25 -0.55 1.50 -0.95 1.85 -2.85 0.15 -1.05 -0.80 -3 -1.45 -3 -0.35 0 -0.90 -0.45 -1.30 -1 -0.55 -0.80 -1.05 -0.90 -2.85 -0.65 -1.90 0.25 -2.15 0.20 -2.15 -0.70 0 -0.80 0.45 -1.10 2.05 -1.35 2.65 -0.40 4.65 -1.45 7.55 -3.85 1.30 -1.10 2.70 -1.95 3.10 -1.95 0.45 0 0.80 -0.30 0.80 -0.70 0 -0.35 0.80 -2 1.75 -3.60 1 -1.60 2 -3.80 2.30 -4.80 0.30 -1.15 0.80 -1.90 1.25 -1.90 0.40 0 2.10 -0.90 3.70 -2 2.90 -1.95 5.15 -2.50 7.20 -1.70 1.35 0.50 1 5.35 -0.70 10.40 -1.65 4.95 -2.65 6.75 -6.10 10.90 -2.20 2.60 -2.65 2.90 -4.30 2.90 -2.40 -0.05 -4 -1.30 -4.20 -3.40 l-0.15 -1.60 -1.60 1.10 c-1.45 1 -1.65 1.40 -1.65 3.55 0 1.30 0.25 2.35 0.50 2.35 0.30 0 0.50 0.90 0.50 1.95 0 1.90 -0.10 2 -2.35 2.75 -2.65 0.90 -5.15 1.05 -5.15 0.30z m18 -13.60 c0 -0.35 0.65 -1.45 1.50 -2.40 0.80 -0.95 1.70 -2.40 2.05 -3.25 0.30 -0.80 0.85 -2.25 1.25 -3.15 0.80 -1.90 0.90 -3.60 0.20 -3.60 -0.25 0 -0.50 0.20 -0.50 0.45 0 0.25 -0.45 0.55 -1.05 0.70 -0.60 0.15 -0.90 0.50 -0.70 0.85 0.20 0.35 -0.10 0.70 -0.70 0.85 -0.55 0.15 -0.90 0.45 -0.75 0.70 0.10 0.25 -0.20 0.80 -0.80 1.30 -0.55 0.50 -1 1.15 -1 1.50 0 0.35 -0.20 0.65 -0.45 0.65 -0.20 0 -0.65 1.35 -0.90 3 -0.45 2.95 -0.45 3 0.70 3 0.65 0 1.15 -0.30 1.15 -0.60z"/>
  <path d="M166.40 204.80 c-1.10 -2.25 -1.10 -2.30 -0.15 -2.30 0.80 0 1.45 1.85 1.15 3.30 -0.10 0.60 -0.40 0.30 -1 -1z"/>
  <path d="M179.45 195.50 c-0.15 -1 -0.20 -1.25 -0.55 -1.80 -0.20 -0.30 -0.25 -0.70 -0.05 -0.90 0.60 -0.60 1.15 -0.30 1.15 0.65 0 0.55 0.35 1.35 0.80 1.75 0.70 0.75 0.70 0.80 -0.25 0.80 -0.60 0 -1.10 -0.20 -1.10 -0.50z"/>
  <path d="M176.15 186.65 c-0.70 -0.25 -0.90 -3.15 -0.25 -3.15 0.45 0 1.60 2.20 1.60 3 0 0.55 -0.35 0.55 -1.35 0.15z"/>
  <path d="M325.75 181.05 c0.15 -0.10 0 -0.50 -0.30 -0.90 -0.45 -0.50 -0.30 -0.65 0.75 -0.65 0.90 0 1.30 0.25 1.30 0.90 0 0.55 -0.35 0.90 -1 0.90 -0.50 0 -0.85 -0.10 -0.75 -0.25z"/>
  <path d="M341 178.95 c0 -0.70 0.35 -0.95 1.25 -0.95 0.70 0 1.25 0.25 1.25 0.50 0 0.30 -0.25 0.50 -0.55 0.50 -0.25 0 -0.40 0.20 -0.25 0.40 0.10 0.20 -0.20 0.45 -0.75 0.45 -0.65 0.05 -0.95 -0.25 -0.95 -0.90z"/>
  <path d="M319.80 175.95 c0.10 -0.20 -0.40 -0.85 -1.15 -1.40 -1.35 -1 -1.35 -1 -0.25 -1.05 0.60 0 1.10 0.25 1.10 0.50 0 0.30 0.45 0.50 1 0.50 0.65 0 1 0.35 1 0.90 0 0.55 -0.35 0.90 -0.95 0.90 -0.55 0 -0.90 -0.15 -0.75 -0.35z"/>
  <path d="M332.50 175.25 c0 -0.90 0.40 -0.90 2 0 l1.25 0.70 -1.60 0.05 c-1.15 0 -1.65 -0.25 -1.65 -0.75z"/>
  <path d="M250.10 170.50 c-0.30 -1.10 -0.60 -2.90 -0.60 -4 0 -1.95 0.05 -2 1.70 -2 1.65 0 1.75 0.10 2.25 2.50 0.30 1.40 0.55 3.20 0.55 4 0 1.35 -0.15 1.50 -1.65 1.50 -1.45 0 -1.65 -0.20 -2.25 -2z"/>
  <path d="M259.50 169 c0 -2.25 1.15 -2.85 1.70 -0.85 0.55 2.05 0.35 2.85 -0.70 2.85 -0.85 0 -1 -0.35 -1 -2z"/>
  <path d="M307.50 168.50 c-0.40 -0.25 -1.20 -0.35 -1.75 -0.20 -0.75 0.20 -0.80 0.15 -0.30 -0.20 0.50 -0.35 0.35 -0.60 -0.75 -1 -1.40 -0.50 -1.40 -0.50 0.70 -0.55 1.15 -0.05 2.10 0.20 2.10 0.45 0 0.30 0.35 0.50 0.75 0.50 0.40 0 0.75 0.35 0.75 0.75 0 0.85 -0.45 0.95 -1.50 0.25z"/>
  <path d="M176 164.90 c0.05 -1.15 1.05 -2.90 1.70 -2.90 0.15 0 0.30 0.90 0.30 2 0 1.65 -0.15 2 -1 2 -0.70 0 -1 -0.35 -1 -1.10z"/>
  <path d="M258.10 163.90 c-0.80 -2.55 -3.70 -8.60 -4.20 -8.80 -0.25 -0.10 -0.40 -0.75 -0.40 -1.40 0 -0.75 -0.30 -1.20 -0.75 -1.20 -0.45 0 -0.95 -0.40 -1.10 -0.85 -0.20 -0.50 -0.75 -1.25 -1.25 -1.70 -0.55 -0.50 -0.90 -1.50 -0.90 -2.50 l0.05 -1.70 2 2.25 c3.70 4.20 7.95 12.10 8.75 16.30 0.25 1.45 0.15 1.70 -0.60 1.70 -0.70 0 -1.15 -0.60 -1.60 -2.10z"/>
  <path d="M300.75 164.50 c-0.15 -0.25 -0.55 -0.40 -0.90 -0.30 -0.35 0.05 -0.40 0.05 -0.20 -0.10 0.20 -0.10 0.15 -0.50 -0.20 -0.90 -0.45 -0.55 -0.35 -0.70 0.75 -0.70 1.05 0 1.30 0.25 1.30 1.25 0 1.30 -0.25 1.55 -0.75 0.75z"/>
  <path d="M179.50 156.70 c0 -0.60 1.70 -3.20 2.10 -3.20 0.20 0 0.40 0.80 0.40 1.75 0 1.55 -0.15 1.75 -1.25 1.75 -0.70 0 -1.25 -0.15 -1.25 -0.30z"/>
  <path d="M293.30 152.05 c0.10 -0.15 -0.30 -0.55 -0.90 -0.90 -1.10 -0.60 -1.05 -0.60 0.75 -0.65 1.45 0 1.85 0.20 1.85 0.90 0 0.55 -0.35 0.90 -1 0.90 -0.50 0 -0.85 -0.10 -0.70 -0.25z"/>
  <path d="M199.50 149.25 c0 -1.90 1 -2.75 3.20 -2.75 0.80 0 1.30 -0.30 1.30 -0.70 0 -0.80 1.05 -1.30 2.80 -1.30 0.65 0 1.20 -0.20 1.20 -0.50 0 -0.25 0.90 -0.50 2 -0.50 1.95 0 2 0.05 2 1.75 0 1.60 -0.10 1.75 -1.45 1.75 -0.80 0 -1.55 0.25 -1.65 0.55 -0.10 0.25 -1.10 0.65 -2.30 0.80 -1.15 0.15 -2.10 0.50 -2.10 0.80 0 0.90 -1.70 1.80 -3.35 1.85 -1.55 0 -1.65 -0.10 -1.65 -1.75z"/>
  <path d="M229.50 148.55 c-1.50 -0.80 -4.40 -1.70 -6.35 -2.05 l-3.65 -0.65 0 -1.70 c0 -1.90 0.05 -1.90 5.90 -1.15 2.25 0.30 4.95 1.10 6.90 2 3 1.45 3.20 1.65 3.20 3.30 0 1.60 -0.10 1.70 -1.60 1.70 -0.90 -0.05 -2.90 -0.70 -4.40 -1.45z"/>
  <path d="M166.35 147.90 c0.65 -1.30 0.90 -1.45 1.05 -0.75 0.25 1.30 -0.25 2.35 -1.15 2.35 -0.70 0 -0.65 -0.20 0.10 -1.60z"/>
  <path d="M186.65 146.50 c0.40 -0.60 1.25 -1.45 1.85 -1.85 1.05 -0.75 1.05 -0.70 0.90 0.90 -0.15 1.50 -0.35 1.70 -1.85 1.85 -1.60 0.15 -1.65 0.15 -0.90 -0.90z"/>
  <path d="M245.10 144.90 c-0.75 -0.75 -0.80 -2.90 -0.10 -2.90 0.30 0 1.35 0.80 2.40 1.75 l1.85 1.70 -1.75 0.05 c-1 0 -2.05 -0.25 -2.40 -0.60z"/>
  <path d="M273.20 143.60 c0.20 -0.15 -0.20 -0.60 -0.80 -0.95 -1.10 -0.60 -1.05 -0.60 0.75 -0.65 2.05 0 2.65 1.20 0.80 1.65 -0.60 0.15 -0.90 0.15 -0.75 -0.05z"/>
  <path d="M192.45 141.30 c0.90 -0.95 2.30 -1.80 6.20 -3.70 0.20 -0.10 0.35 0.40 0.35 1.10 0 0.80 -0.30 1.30 -0.70 1.30 -0.40 0 -1.35 0.55 -2.10 1.25 -0.90 0.85 -1.90 1.25 -3.10 1.25 l-1.75 0 1.10 -1.20z"/>
  <path d="M199.50 137.55 c0 -0.65 6 -3.40 8.40 -3.80 4.10 -0.70 4.60 -0.65 4.60 0.20 0 0.65 -0.95 1.05 -3.65 1.70 -2 0.45 -4.15 0.85 -4.75 0.85 -0.65 0 -1.10 0.30 -1.10 0.75 0 0.50 -0.55 0.75 -1.75 0.75 -0.95 0 -1.75 -0.20 -1.75 -0.45z"/>
  <path d="M238.30 131.45 c0.15 -0.25 -0.20 -0.45 -0.75 -0.45 -0.60 0 -1.05 -0.20 -1.05 -0.50 0 -0.25 0.80 -0.50 1.75 -0.50 1.95 0 2.50 1.20 0.75 1.65 -0.55 0.15 -0.90 0.05 -0.70 -0.20z"/>
  <path d="M283.50 130.70 c0 -1.05 0.15 -1.20 0.65 -0.75 0.40 0.30 0.85 0.45 1 0.30 0.20 -0.15 0.25 -0.10 0.10 0.10 -0.15 0.15 0 0.60 0.30 1 0.45 0.50 0.30 0.65 -0.75 0.65 -1.05 0 -1.30 -0.25 -1.30 -1.30z"/>
  <path d="M76 129.95 c0 -0.75 0.35 -0.95 1.65 -0.95 1.35 0.05 1.45 0.10 0.70 0.55 -0.45 0.30 -0.75 0.70 -0.65 0.90 0.15 0.20 -0.20 0.40 -0.75 0.40 -0.65 0.05 -0.95 -0.25 -0.95 -0.90z"/>
  <path d="M190.35 111.65 c1.05 -2.60 1.15 -2.60 1.15 -0.25 0 1.75 -0.15 2.10 -0.95 2.10 -0.95 0 -0.95 -0.10 -0.20 -1.85z"/>
  <path d="M106.50 107.25 c1.60 -0.90 2 -0.90 2 0 0 0.50 -0.50 0.75 -1.60 0.75 l-1.65 -0.05 1.25 -0.70z"/>
  <path d="M26.65 101.50 c0.45 -0.30 0.70 -0.80 0.55 -1.10 -0.20 -0.35 -0.10 -0.40 0.20 -0.20 0.30 0.15 2.60 -0.80 5.10 -2.15 2.55 -1.35 4.40 -2.55 4.15 -2.65 -0.20 -0.15 -0.10 -0.15 0.25 -0.10 0.95 0.25 2.10 -0.35 2.10 -1.10 0 -0.40 0.25 -0.70 0.55 -0.70 0.25 0 0.35 0.25 0.15 0.55 -0.20 0.40 -0.05 0.40 0.60 0.10 0.55 -0.25 1.85 -0.30 2.95 -0.15 2 0.30 2 0.30 0.60 0.70 -1.10 0.35 -1.30 0.55 -0.75 0.90 0.50 0.35 0.45 0.40 -0.25 0.20 -1.30 -0.40 -5.10 1.20 -4.25 1.80 0.50 0.35 0.40 0.40 -0.25 0.20 -1.05 -0.35 -4.35 0.90 -4.35 1.65 0 0.30 -0.15 0.50 -0.35 0.50 -1.05 -0.15 -1.65 0.10 -1.35 0.65 0.25 0.35 0.15 0.40 -0.25 0.20 -0.35 -0.25 -0.95 0 -1.35 0.50 -0.45 0.55 -0.60 0.65 -0.40 0.25 0.30 -0.55 0.15 -0.65 -0.60 -0.30 -0.50 0.20 -1.60 0.50 -2.45 0.60 -1.25 0.15 -1.35 0.10 -0.60 -0.35z"/>
  <path d="M43.50 92.75 c0 -0.15 0.90 -0.60 2 -1.05 1.15 -0.45 1.95 -0.95 1.80 -1.05 -0.10 -0.15 -0.70 0 -1.25 0.35 -0.70 0.35 -1.05 0.35 -1.05 0 0 -0.50 0.15 -0.55 2.75 -0.80 0.85 -0.05 1.85 -0.15 2.25 -0.25 1.65 -0.25 4.50 0.10 4.50 0.55 0 0.30 -0.35 0.50 -0.75 0.50 -0.40 0 -0.75 0.20 -0.75 0.45 0 0.25 -0.55 0.40 -1.25 0.35 -0.70 0 -1.25 -0.20 -1.25 -0.40 0 -0.25 -0.35 -0.40 -0.75 -0.40 -0.40 0 -0.75 0.20 -0.75 0.40 0 0.65 -2.40 1.60 -4 1.60 -0.85 0 -1.50 -0.10 -1.50 -0.25z"/>
  <path d="M56.50 88.90 c0 -0.70 0.45 -0.90 2.05 -0.90 1.20 0 1.90 0.20 1.70 0.50 -0.15 0.30 -0.65 0.50 -1.05 0.50 -0.40 0 -0.65 0.20 -0.50 0.45 0.15 0.25 -0.25 0.40 -0.95 0.35 -0.85 -0.05 -1.25 -0.35 -1.25 -0.90z"/>
  <path d="M164.40 89.65 c-0.50 -0.10 -0.90 -0.55 -0.90 -0.95 0 -0.50 0.60 -0.70 2.05 -0.70 1.20 0 1.90 0.20 1.70 0.50 -0.15 0.30 -0.80 0.50 -1.40 0.50 -0.90 0 -0.95 0.10 -0.35 0.50 0.75 0.50 0.40 0.55 -1.10 0.15z"/>
  <path d="M187.40 83.65 c-1.80 -0.45 -1 -1.65 1.10 -1.65 1.10 0 2 0.25 2 0.50 0 0.30 -0.35 0.50 -0.75 0.50 -0.40 0 -0.75 0.25 -0.75 0.50 0 0.50 -0.15 0.55 -1.60 0.15z"/>
  <path d="M178.50 76.75 c2.30 -0.90 2.50 -0.90 2.50 0 0 0.55 -0.55 0.75 -2.10 0.70 l-2.15 -0.05 1.75 -0.65z"/>
  <path d="M142.90 71.65 c-1.65 -0.40 -1 -1.65 0.85 -1.65 0.95 0 1.75 0.25 1.75 0.50 0 0.30 -0.45 0.50 -1.05 0.50 -0.55 0 -0.85 0.25 -0.70 0.50 0.15 0.30 0.25 0.45 0.15 0.45 -0.10 -0.05 -0.55 -0.15 -1 -0.30z"/>
  <path d="M161.40 69.65 c-1.80 -0.45 -1 -1.65 1.10 -1.65 1.10 0 2 0.25 2 0.50 0 0.30 -0.35 0.50 -0.75 0.50 -0.40 0 -0.75 0.25 -0.75 0.50 0 0.50 -0.15 0.55 -1.60 0.15z"/>
  <path d="M156.50 61.50 c0 -0.25 0.45 -0.50 1.05 -0.50 0.55 0 0.90 -0.20 0.75 -0.45 -0.20 -0.25 0.15 -0.35 0.70 -0.20 1.75 0.45 1.20 1.65 -0.75 1.65 -0.95 0 -1.75 -0.20 -1.75 -0.50z"/>
  <path d="M170.75 59 c0.15 -0.25 1.10 -0.50 2.05 -0.50 0.95 0 1.70 0.25 1.70 0.50 0 0.30 -0.90 0.50 -2.05 0.50 -1.20 0 -1.90 -0.20 -1.70 -0.50z"/>
  <path d="M231.50 46.80 c0 -1.85 1.75 -1.80 1.80 0.10 0.05 0.75 -0.05 1.05 -0.15 0.70 -0.20 -0.50 -0.40 -0.50 -0.95 -0.05 -0.55 0.45 -0.70 0.35 -0.70 -0.75z"/>
  <path d="M234.50 43.25 c0 -0.40 0.35 -0.75 0.80 -0.75 0.70 0 0.70 0.15 0.20 0.75 -0.35 0.40 -0.70 0.75 -0.80 0.75 -0.10 0 -0.20 -0.35 -0.20 -0.75z"/>
  <path d="M138.50 41.55 c0 -0.30 0.80 -0.55 1.80 -0.55 0.95 0 1.65 -0.20 1.50 -0.45 -0.30 -0.45 8.20 -0.25 8.65 0.20 0.65 0.65 -1 0.95 -6.20 1.15 -4.05 0.15 -5.75 0.05 -5.75 -0.35z"/>
 </g>
 <g fill="#170000">
  <path d="M52.35 297.05 c-0.25 -1 0.45 -2.55 1.15 -2.55 0.30 0 0.50 0.80 0.50 1.75 0 1.90 -1.20 2.50 -1.65 0.80z"/>
  <path d="M73.25 295.50 c0.20 -0.30 -0.15 -0.50 -0.70 -0.50 -0.60 0 -1.05 -0.20 -1.05 -0.50 0 -0.25 1 -0.50 2.25 -0.50 1.80 0 2.25 0.15 2.25 0.90 0 0.60 -0.45 0.90 -1.50 0.95 -0.90 0.05 -1.40 -0.10 -1.25 -0.35z"/>
  <path d="M211.50 218.70 c-8.80 -1.70 -22.40 -8.85 -24 -12.65 -0.35 -0.85 -0.85 -1.55 -1.10 -1.55 -0.25 0 -0.30 -0.25 -0.15 -0.55 0.25 -0.35 0.80 -0.10 1.55 0.60 l1.20 1.10 0 -1.80 c0 -1.10 -0.25 -1.85 -0.60 -1.85 -0.30 0 -0.45 -0.15 -0.25 -0.30 0.15 -0.15 -0.15 -0.75 -0.65 -1.35 -0.95 -1 -0.95 -1.05 0 -2.55 l0.95 -1.55 -1.45 -3.25 c-0.80 -1.80 -1.25 -3.30 -0.95 -3.40 0.70 -0.25 0.55 -1.10 -0.20 -1.10 -0.75 0 -3 -7.55 -2.55 -8.65 0.15 -0.40 -1 -1.75 -2.75 -3.25 -1.65 -1.45 -3.15 -3.10 -3.35 -3.75 -0.35 -1.05 -0.35 -1.05 -0.75 -0.10 -0.20 0.55 -0.40 1.70 -0.40 2.60 -0.05 0.85 -0.25 1.75 -0.55 1.90 -0.60 0.35 -0.60 -0.50 -0.20 -4.70 0.35 -2.95 0.40 -3.05 1.75 -3.05 0.95 0 1.50 0.30 1.70 1 0.65 2 2.65 3.90 3.90 3.65 1.05 -0.20 1.25 0 1.55 1.50 0.15 0.90 0.75 2.55 1.25 3.65 0.50 1.05 1.20 2.95 1.50 4.20 0.35 1.25 0.90 3.10 1.30 4.10 0.50 1.30 0.55 1.90 0.15 2 -0.30 0.10 0.30 1.80 1.50 4.15 1.80 3.45 2.10 3.80 2.10 2.50 l0.05 -1.50 1.50 1.75 1.50 1.75 -1.30 0.15 c-0.75 0.10 -1.25 0.50 -1.25 0.95 0 0.85 1.70 3.80 3 5.20 0.40 0.45 1.40 1.80 2.25 2.95 1.50 2.10 5.85 5 7.55 5 0.55 0 1.85 0.35 2.95 0.70 1.10 0.40 5 1 8.65 1.35 5.80 0.55 6.60 0.75 6.60 1.55 0 1.10 0 1.10 4.40 -0.10 4.25 -1.20 6.10 -1.25 6.10 -0.30 0 1.35 -7.60 2.95 -14.75 3.10 -3.55 0.05 -7.05 0 -7.75 -0.10z m-17.10 -8.80 c-0.40 -0.35 -1.25 -0.95 -1.90 -1.30 -1.15 -0.60 -1.15 -0.55 0.15 0.60 0.75 0.75 1.65 1.30 1.90 1.30 0.30 0 0.20 -0.30 -0.15 -0.60z"/>
  <path d="M234.50 214.75 c0 -1.10 0.20 -1.25 1.80 -1.25 2.20 0 2.10 0.90 -0.20 1.85 -1.55 0.65 -1.60 0.60 -1.60 -0.60z"/>
  <path d="M239.50 212.25 c0 -1.10 0.20 -1.25 1.75 -1.25 2.15 0 2.20 0.50 0.30 1.65 -1.90 1.10 -2.05 1.10 -2.05 -0.40z"/>
  <path d="M244.60 208.95 c0.15 -1.60 0.30 -1.70 2.10 -1.85 1.80 -0.15 1.90 -0.10 1.30 0.65 -0.35 0.45 -1.30 1.25 -2.10 1.85 l-1.45 1 0.15 -1.65z"/>
  <path d="M247.60 206.60 c-1 -0.15 -1.15 -0.45 -1 -2 0.15 -1.60 0.35 -1.85 1.55 -2 1.05 -0.15 1.35 -0.40 1.35 -1.45 0 -0.80 0.35 -1.35 1 -1.50 1.20 -0.30 1.75 -3.50 1.35 -7.55 -0.30 -2.85 -0.85 -3.60 -2.70 -3.60 l-1.10 0 1.25 -3.60 c2.35 -6.95 1.25 -8.35 -3.90 -4.80 -1.75 1.15 -3.40 2.05 -3.75 2 -0.35 -0.05 -0.85 0.70 -1.10 1.75 -0.30 1.05 -1.30 3.25 -2.30 4.90 -1.70 2.90 -1.70 2.95 -0.25 1.25 1.60 -1.90 1.90 -1.75 0.80 0.45 -0.40 0.75 -0.90 2.70 -1.05 4.35 -0.35 2.90 -0.30 3.05 1 3.90 1.05 0.70 1.45 0.75 2.05 0.25 0.65 -0.55 0.75 -0.40 0.60 1.05 -0.15 1.65 -0.25 1.75 -3 2.30 -3.35 0.65 -4.40 1.35 -4.40 3 0 1.10 -0.20 1.20 -2.35 1.15 -2.20 -0.05 -2.30 -0.05 -1 -0.55 0.75 -0.25 1.35 -0.70 1.35 -0.95 0 -0.30 -0.20 -0.35 -0.50 -0.20 -0.30 0.20 -0.50 -0.65 -0.50 -2.20 0 -1.35 -0.20 -2.65 -0.50 -2.80 -1.10 -0.70 -0.40 -2.25 1.70 -3.80 1.25 -0.85 2.35 -1.90 2.50 -2.30 0.15 -0.40 -0.80 0.20 -2.10 1.25 -2.95 2.50 -4.65 3.35 -8 4.05 -3.45 0.70 -3.60 0.70 -3.60 -0.40 0 -0.75 0.65 -1.05 3.75 -1.60 2.40 -0.40 3.75 -0.90 3.75 -1.30 0 -0.35 0.45 -0.65 1 -0.65 0.55 0 1 -0.35 1 -0.75 0 -0.40 0.45 -0.75 0.95 -0.75 0.55 0 1.40 -0.75 2 -1.75 0.55 -0.95 1.25 -1.75 1.55 -1.75 0.25 0 0.50 -0.30 0.50 -0.70 0 -0.40 0.20 -0.80 0.40 -0.90 0.55 -0.25 2.95 -5.80 3.65 -8.50 0.30 -1.35 0.75 -2.40 0.90 -2.40 0.20 0 0.85 -0.90 1.50 -2 0.60 -1.05 2 -2.95 3.05 -4.10 1.10 -1.20 2 -2.65 2 -3.25 0 -0.65 -0.65 -2.60 -1.50 -4.30 -0.80 -1.75 -1.50 -3.80 -1.50 -4.50 0 -1.20 0.20 -1.35 1.75 -1.35 1.40 0 1.85 0.25 2.50 1.50 0.55 1 1.15 1.50 1.95 1.50 1.85 0 3.45 4.05 4.10 10.65 0.20 1.85 0.50 3.35 0.65 3.35 0.15 -0.05 1.10 -0.70 2.05 -1.50 1 -0.85 2.30 -1.50 3.05 -1.50 1.30 0 1.40 0.15 1.75 2.80 0.20 1.75 0.15 2.95 -0.20 3.30 -0.40 0.40 -0.65 0.15 -0.90 -0.80 -0.40 -1.70 -1.85 -1.70 -3.55 0 -1.25 1.25 -1.25 1.40 -1 6.60 0.45 9.05 0.80 9.30 3.45 2.35 0.25 -0.60 0.30 -0.05 0.20 1.50 -0.15 3.05 -3.75 10.50 -7.20 15.10 -2.65 3.45 -3.35 4 -5 3.75z m3.95 -39.65 c-0.30 -0.80 -0.50 -0.90 -0.50 -0.35 -0.05 1.10 0.60 2.75 0.80 2.10 0.10 -0.30 -0.05 -1.10 -0.30 -1.75z"/>
  <path d="M211.05 198.70 c-3.15 -0.85 -5.20 -2 -7.25 -4.15 l-1.50 -1.55 1.65 0 c1.05 0 2.25 0.50 3.45 1.50 2 1.55 5.50 3 7.40 3 0.85 0 1.20 0.30 1.20 1 0 1.20 -1.05 1.25 -4.95 0.20z"/>
  <path d="M242.95 196.65 c0.60 -0.75 1.80 -2.45 2.70 -3.75 0.90 -1.30 1.75 -2.40 2 -2.40 0.20 0 0.35 0.80 0.35 1.75 0 0.95 -0.20 1.75 -0.50 1.75 -0.25 0 -0.50 0.35 -0.50 0.75 0 0.40 -0.30 0.75 -0.70 0.75 -0.40 0 -0.80 0.50 -0.90 1.15 -0.10 0.85 -0.55 1.15 -1.85 1.25 l-1.70 0.15 1.10 -1.40z"/>
  <path d="M199.65 190.05 c-2 -2.65 -2.05 -3.05 -0.40 -3.05 0.75 0 1.25 0.30 1.25 0.70 0 0.40 0.25 0.80 0.55 0.90 0.30 0.10 0.45 0.95 0.35 1.90 l-0.15 1.75 -1.60 -2.20z"/>
  <path d="M201.60 187.25 c-0.90 -0.40 -1.75 -1.05 -1.90 -1.50 -0.40 -0.95 -1.20 -1 -1.20 0 0 0.40 -0.25 0.75 -0.55 0.75 -0.50 0 -0.95 -0.95 -2.65 -5.55 -0.50 -1.45 -1.20 -2.45 -1.80 -2.60 -0.55 -0.15 -2.10 -2 -3.50 -4.15 -2.70 -4.25 -3.15 -6.70 -1.75 -9.20 0.90 -1.60 0.95 -3.80 0.05 -4.15 -0.40 -0.15 -0.95 0.40 -1.45 1.45 -1.05 2.20 -1.85 2.15 -1.85 -0.05 0 -1.20 0.25 -1.75 0.75 -1.75 0.45 0 0.75 -0.45 0.75 -1.15 0 -2.05 1.05 -2.90 4.15 -3.20 l2.85 -0.30 0 1.75 c0 1 -0.80 3.50 -1.75 5.60 -1.85 4.10 -1.80 5.20 0.35 6.70 0.50 0.35 0.90 0.95 0.90 1.35 0 0.35 0.80 1.15 1.75 1.75 1.50 0.95 1.75 1.35 1.75 3.05 0 1.90 0.05 1.95 1.85 1.95 1.55 0 2.30 0.45 5.20 3.25 1.85 1.80 3.70 3.25 4.15 3.25 0.60 0 0.80 0.50 0.80 1.75 l0 1.75 -2.60 0 c-1.45 -0.05 -3.40 -0.35 -4.30 -0.75z m1.05 -2.95 c-0.50 -0.65 -1.25 -1.45 -1.70 -1.70 -0.70 -0.45 -0.80 -0.35 -0.60 0.40 0.15 0.55 0.70 1.10 1.20 1.25 0.50 0.20 0.95 0.55 0.95 0.80 0 0.25 0.25 0.45 0.50 0.45 0.30 0 0.15 -0.55 -0.35 -1.20z"/>
  <path d="M183 168.15 c0 -2.40 0.55 -3.65 1.55 -3.65 1.10 0 1.15 0.45 0.35 3.05 -0.65 2.25 -1.90 2.65 -1.90 0.60z"/>
  <path d="M176 165.90 c0 -1.50 0.65 -2.90 1.30 -2.90 0.45 0 0.70 0.60 0.70 1.75 0 1.40 -0.20 1.75 -1 1.75 -0.55 0 -1 -0.30 -1 -0.60z"/>
  <path d="M238.50 152.75 c0 -1.65 0.10 -1.75 1.75 -1.75 1.65 0 1.75 0.10 1.75 1.75 0 1.65 -0.10 1.75 -1.75 1.75 -1.65 0 -1.75 -0.10 -1.75 -1.75z"/>
  <path d="M231.50 148.45 c0 -0.80 0.20 -1 0.90 -0.75 0.80 0.30 0.80 0.25 0 -0.40 -1.30 -1 -1.10 -1.30 0.85 -1.30 1.65 0 1.75 0.10 1.75 1.75 0 1.65 -0.10 1.75 -1.75 1.75 -1.45 0 -1.75 -0.20 -1.75 -1.05z"/>
  <path d="M220 144.25 c0 -1.70 0.05 -1.75 2 -1.75 1.95 0 1.95 0.05 1.90 1.75 -0.05 1.70 -0.15 1.75 -2 1.75 -1.85 0 -1.90 -0.05 -1.90 -1.75z"/>
  <path d="M205 135.30 c0 -0.65 1.40 -1.30 2.90 -1.30 0.30 0 0.60 0.45 0.60 1 0 0.80 -0.35 1 -1.75 1 -1.15 0 -1.75 -0.25 -1.75 -0.70z"/>
  <path d="M32 98.95 c0 -0.75 0.35 -0.95 1.85 -0.95 1.80 0 1.80 0 0.85 0.90 -1.30 1.25 -2.70 1.30 -2.70 0.05z"/>
 </g>
 <g fill="#260202">
  <path d="M209 217.85 c-4.65 -1.10 -11.85 -4.25 -13.05 -5.65 -0.30 -0.40 1.10 0.10 3.15 1.05 2 0.95 4.75 1.85 6.10 2 1.35 0.15 3.40 0.60 4.60 1 2.45 0.85 10.60 1.40 11.55 0.85 0.35 -0.25 -2.35 -0.70 -6 -1.05 -3.60 -0.35 -7.50 -0.95 -8.60 -1.35 -1.10 -0.35 -2.40 -0.70 -2.95 -0.70 -1.70 0 -6.05 -2.90 -7.55 -5 -0.85 -1.15 -1.85 -2.50 -2.25 -2.95 -1.25 -1.35 -3.05 -4.40 -3.25 -5.60 -0.10 -0.60 -0.65 -1.95 -1.25 -3 l-1 -1.95 1.20 0 c0.85 0 2.50 1.25 5.40 4.15 2.30 2.25 5.15 4.65 6.30 5.35 1.20 0.70 2.95 1.75 3.90 2.40 0.95 0.60 2.05 1.10 2.40 1.10 0.35 0 1.25 0.55 2 1.25 0.75 0.70 1.75 1.25 2.25 1.25 0.45 0 1.05 0.20 1.35 0.45 0.80 0.75 8.80 1.65 14.60 1.60 l5.60 -0.05 0 1.70 0 1.70 -4.10 1.15 c-6.15 1.65 -14.15 1.80 -20.40 0.30z"/>
  <path d="M242.50 208.30 c0 -0.95 0.20 -1.85 0.45 -2 0.20 -0.15 0.80 -2.25 1.30 -4.65 0.55 -2.70 1.80 -6.30 3.25 -9.40 2.80 -5.90 3.50 -7.95 3.45 -10 -0.05 -2 0.85 -5.45 1.50 -5.65 0.30 -0.10 0.55 -0.50 0.55 -0.90 0 -0.40 0.15 -0.70 0.40 -0.70 0.85 -0.05 3.45 -2.85 3.95 -4.25 0.40 -1.30 0.75 -1.50 2.20 -1.50 1.60 0 1.70 0.10 1.85 1.95 0.10 1.10 0 2.55 -0.20 3.25 -0.35 1.25 -0.35 1.25 -0.65 0.20 -0.30 -1.05 -0.50 -0.95 -3.95 1.70 -3.35 2.60 -3.60 2.90 -3.35 4.35 0.15 0.85 -0.05 2.65 -0.45 4.05 -0.45 1.35 -0.60 2.60 -0.35 2.75 0.75 0.50 1.45 4.80 1.20 7.65 -0.25 2.95 0.05 3.45 1.15 2 0.60 -0.85 0.65 -0.80 0.70 0.30 0 2.95 -8.85 12.55 -11.60 12.55 -1.25 0 -1.40 -0.15 -1.40 -1.70z"/>
  <path d="M232.20 204.20 c0.05 -1.80 2 -3.15 5 -3.50 2.30 -0.30 2.40 -0.25 2.20 0.85 -0.20 1.50 -3.70 3.90 -5.70 3.95 -1.35 0 -1.55 -0.15 -1.50 -1.30z"/>
  <path d="M183.80 182.90 c-0.45 -1.80 -0.35 -2.05 0.45 -1.40 0.40 0.35 0.75 0.45 0.75 0.25 0 -0.20 0.35 -0.10 0.75 0.25 1.15 0.95 0.90 2 -0.45 2 -0.80 0 -1.30 -0.35 -1.50 -1.10z"/>
  <path d="M240.50 178.05 c0 -3.10 0.45 -4.30 2.45 -6.55 0.85 -0.95 1.55 -1.90 1.55 -2.10 0 -0.20 0.60 -0.95 1.30 -1.65 1.15 -1.15 1.20 -1.45 0.70 -3 -0.30 -0.95 -0.50 -2.60 -0.40 -3.60 0.20 -1.75 0.35 -1.90 1.90 -2.05 2.10 -0.20 3 0.85 3 3.35 -0.05 1.65 -0.10 1.70 -0.75 0.90 -0.65 -0.90 -0.70 -0.85 -0.85 0.50 l-0.15 1.40 -1.20 -1.75 c-0.65 -0.95 -1 -1.30 -0.80 -0.75 0.20 0.55 0.70 1.80 1.05 2.75 1.30 3.45 0.85 4.65 -3.15 8.90 -0.35 0.35 -1.10 1.50 -1.70 2.60 -0.65 1.10 -1.30 2 -1.55 2 -0.20 0 -0.40 0.35 -0.40 0.75 0 0.40 -0.20 0.75 -0.50 0.75 -0.25 0 -0.50 -1.10 -0.50 -2.45z"/>
  <path d="M181 176.40 c-1.25 -0.90 -2.75 -2.60 -3.35 -3.65 -0.95 -1.65 -1.15 -1.80 -1.15 -0.85 0 0.60 -0.20 1.10 -0.50 1.10 -0.55 0 -0.65 -2.10 -0.20 -3.85 0.40 -1.50 3.20 -1.70 3.20 -0.25 0 0.50 0.50 1.20 1.15 1.55 1.75 0.95 3.70 4.50 3.35 6.25 l-0.25 1.45 -2.25 -1.75z"/>
  <path d="M195 176.30 c0 -0.40 -0.80 -1.20 -1.75 -1.80 -0.95 -0.60 -1.75 -1.40 -1.75 -1.75 0 -0.40 -0.40 -1 -0.90 -1.35 -1.10 -0.80 -2.60 -3.15 -2.60 -4 0 -0.35 0.90 -2.65 2 -5.15 1.10 -2.45 2 -4.55 2 -4.65 0 -0.10 -0.40 -0.05 -0.85 0.15 -2.35 0.90 -2.70 0.75 -2.55 -0.90 0.15 -1.55 0.25 -1.60 2.55 -1.75 l2.35 -0.15 0 2.65 c0 1.45 -0.20 2.95 -0.45 3.35 -0.35 0.50 0 1.35 1.15 2.75 0.95 1.15 1.90 2.55 2.25 3.15 0.60 1.15 0.75 7.10 0.25 9.05 -0.35 1.20 -1.70 1.55 -1.70 0.40z"/>
 </g>
 <g fill="#25120d">
  <path d="M224.50 217.95 c0 -0.25 0.20 -0.40 0.45 -0.25 0.25 0.15 0.75 -0.10 1.10 -0.50 0.60 -0.75 0.50 -0.80 -1.05 -0.45 -4.40 0.90 -4.40 0.90 -2.85 0 1 -0.55 2.25 -0.75 4.25 -0.60 2.15 0.15 3.20 -0.05 4.35 -0.75 l1.50 -0.95 -2 0.10 c-1.10 0.10 -2.40 0.30 -2.85 0.55 -0.50 0.25 -0.90 0.15 -1.05 -0.25 -0.20 -0.45 -0.30 -0.45 -0.30 0.05 -0.05 0.70 -2.60 0.85 -3.30 0.15 -0.30 -0.25 -1.95 -0.60 -3.75 -0.75 -5.45 -0.55 -6.70 -0.80 -7.20 -1.30 -0.30 -0.30 -0.90 -0.50 -1.35 -0.50 -0.50 0 -1.50 -0.55 -2.25 -1.25 -0.75 -0.70 -1.65 -1.25 -2 -1.25 -0.35 0 -1.45 -0.50 -2.40 -1.10 -0.95 -0.65 -2.70 -1.70 -3.90 -2.40 -3.85 -2.25 -10.55 -9.40 -12.55 -13.30 -2.40 -4.80 -4.85 -14.35 -2.85 -11.20 0.35 0.55 0.50 0.60 0.50 0.10 0 -1.20 1.30 0.50 2 2.65 1 3.15 3.75 8.30 5.65 10.75 1 1.20 1.70 2.35 1.60 2.55 -0.25 0.35 2.20 2.80 2.60 2.50 0.35 -0.25 3.25 2 2.95 2.30 -0.45 0.45 2.65 2.40 6 3.80 3.80 1.60 8.70 2.65 9.15 1.95 0.15 -0.30 1.70 -0.50 3.45 -0.55 2.75 0 3.10 0.10 3.10 1 0 0.75 -0.35 0.95 -1.85 1 -1.45 0.05 -1 0.25 1.85 0.80 5.15 0.95 11.60 0.65 14.50 -0.75 4 -1.95 5.55 -3.80 7.25 -8.65 l0.70 -1.90 -2.75 2.20 c-2.05 1.70 -3.15 2.25 -4.45 2.25 -1.35 0 -1.70 0.20 -1.85 1.15 -0.10 0.85 -0.55 1.15 -1.75 1.25 -0.95 0.10 -1.65 0.45 -1.65 0.80 0 0.75 -1.50 1.30 -3.60 1.30 -2.35 0 -1.55 -1.20 1.50 -2.30 1.60 -0.55 2.80 -1.25 2.75 -1.60 -0.10 -0.35 0.25 -0.60 0.75 -0.60 0.45 -0.05 1.75 -0.70 2.85 -1.50 1.10 -0.80 2.45 -1.70 3.05 -1.95 1.40 -0.60 5.95 -5.65 7.50 -8.35 0.70 -1.20 2 -4.20 2.90 -6.70 0.90 -2.50 1.85 -4.75 2.15 -5.05 0.80 -0.80 2.30 1.80 1.70 2.90 -0.25 0.50 -0.75 1.90 -1.05 3.15 -0.35 1.25 -1.65 4.50 -2.95 7.25 -1.45 3 -2.75 6.70 -3.25 9.25 -0.50 2.35 -1.15 4.60 -1.45 5 -0.90 1.10 3.35 -2.25 5.80 -4.70 2.30 -2.25 4.45 -5.60 7.60 -11.95 1.05 -2.10 2 -3.75 2.10 -3.65 0.25 0.25 -1.95 6.10 -3.50 9.05 -4.90 9.70 -14.70 17.40 -26.20 20.55 -4.90 1.35 -5.65 1.45 -5.65 0.65z"/>
  <path d="M198.25 213.80 c-5.95 -2.95 -9.05 -5.25 -10.70 -8.05 -0.55 -0.95 -0.95 -1.75 -0.90 -1.75 0.10 0 1.70 1.45 3.60 3.25 2.05 1.90 5.30 4.20 7.90 5.55 8 4.30 8.10 4.95 0.10 1z"/>
  <path d="M212.70 199 c-3.30 -0.65 -5.30 -1.70 -8.60 -4.45 -3.95 -3.30 -6.30 -6.80 -7.90 -11.80 -1.15 -3.55 -1.25 -4.50 -0.95 -8.60 0.35 -4.95 0.20 -5.50 -2.40 -8.80 -1.40 -1.80 -1.50 -1.85 -2.40 -1.05 -0.90 0.80 -0.95 0.80 -0.95 0 0 -0.45 0.55 -1.95 1.25 -3.30 0.70 -1.35 1.25 -2.90 1.25 -3.50 0 -1.30 -1.40 -1.30 -1.90 0.05 -0.25 0.55 -0.60 1 -0.85 0.95 -0.70 -0.15 -3.60 5.90 -4.50 9.25 -0.40 1.65 -0.75 3.90 -0.75 5.05 0 4.15 -1.25 4.90 -3 1.80 -0.60 -1.05 -1.55 -2.20 -2.10 -2.55 -0.55 -0.35 -0.85 -0.40 -0.70 -0.10 0.20 0.25 0.10 0.60 -0.20 0.80 -0.45 0.30 -0.70 -0.35 -0.55 -1.35 0 -0.25 -0.15 -0.40 -0.40 -0.40 -0.30 0 -0.65 1.05 -0.80 2.40 -0.40 2.95 -0.80 4.10 -1.10 3.25 -0.35 -0.90 1.25 -13 1.85 -14.15 1 -1.90 1.65 -1.15 1.35 1.50 -0.25 1.85 -0.15 2.50 0.35 2.50 0.35 0 1.25 0.85 1.95 1.85 0.90 1.25 1.40 1.60 1.55 1.10 0.10 -0.40 0.50 -1.80 0.85 -3.20 1.20 -4.85 4 -9.80 7.80 -13.75 1.95 -2.10 4.20 -4.15 5 -4.50 0.75 -0.40 1.75 -1.15 2.25 -1.65 0.50 -0.45 1.60 -0.85 2.45 -0.85 0.85 0 3.20 -0.60 5.15 -1.35 3.10 -1.15 4.50 -1.35 11 -1.55 7.95 -0.25 13.30 0.45 13.30 1.70 0 0.45 0.60 0.70 1.75 0.70 1.20 0 1.75 0.25 1.75 0.75 0 0.45 0.45 0.75 1.15 0.75 1.25 0 5.80 2.80 8.10 5.05 0.85 0.80 2 1.45 2.60 1.45 3 0 9.15 11.90 9.15 17.80 0 2.10 0.75 0.75 1.80 -3.40 0.50 -1.85 1.05 -3.40 1.30 -3.40 0.20 0 0.40 -0.70 0.40 -1.55 0 -2.30 1.10 -1.55 2.10 1.40 1.10 3.45 2.10 12.90 1.45 14.05 -0.40 0.65 -0.55 0.30 -0.85 -1.80 -0.30 -2.25 -0.45 -2.55 -1.10 -2 -0.65 0.55 -0.70 0.50 -0.20 -0.45 0.75 -1.35 0.80 -3.55 0.10 -2.85 -0.40 0.40 -0.85 1.95 -0.95 3.40 -0.05 0.25 -0.20 0.35 -0.35 0.15 -0.20 -0.15 -1.15 0.45 -2.10 1.40 -2.35 2.20 -2.90 1.70 -3.30 -2.80 -0.45 -4.45 -1.55 -8.10 -3.20 -10.55 -1.20 -1.85 -1.35 -1.90 -1.95 -1.10 -0.70 1 -0.85 1.90 -0.25 1.50 0.20 -0.10 0.45 0.15 0.50 0.60 0.05 0.45 0.20 1.70 0.40 2.70 0.25 1.55 0.10 2.05 -1 3.15 -0.70 0.70 -1.30 1.45 -1.30 1.65 0 0.20 -0.75 1.20 -1.70 2.25 -1.25 1.45 -1.95 3 -2.75 6.25 -2.05 8.15 -4.60 12.30 -10.20 16.40 -4.35 3.20 -11.95 4.50 -18.65 3.20z m15.10 -6 c1.60 -0.55 3.30 -1 3.75 -1 1.10 0 4.65 -4.65 6.15 -8.05 1.30 -3 2.30 -7.50 2.30 -10.45 0 -1.45 0.55 -2.45 2.85 -5.25 l2.80 -3.45 -1.55 -3 c-2.25 -4.30 -4.85 -7.35 -8.45 -9.75 -1.75 -1.15 -3.15 -2.45 -3.15 -2.85 0 -0.40 -0.50 -0.70 -1.25 -0.70 -0.70 0 -1.25 -0.30 -1.25 -0.65 0 -0.45 -0.60 -0.55 -2 -0.45 -1.15 0.10 -2 0 -2 -0.30 0 -0.25 -2.05 -0.65 -4.55 -0.85 -3.55 -0.30 -5.55 -0.15 -9 0.55 -2.45 0.50 -4.45 1.05 -4.45 1.20 0 0.20 -0.90 0.65 -2 1 -1.10 0.35 -2 0.85 -2 1.10 0 0.20 -0.25 0.40 -0.55 0.40 -0.95 0 -6.30 4.90 -8.25 7.55 -1.80 2.50 -1.80 2.50 -0.85 3.60 1.95 2.30 3.15 5.20 3.15 7.80 0 2.30 0.10 2.55 1.15 2.55 0.70 0 2.25 1.15 4.10 3 1.65 1.65 4.35 3.90 6 5.05 4.60 3.20 5.25 3.95 5.25 5.70 0 1.95 -1.45 2.75 -5.05 2.75 -1.40 0 -2.40 0.20 -2.25 0.40 0.55 0.95 6.75 3.65 9.80 4.30 4.60 1 7.90 0.95 11.30 -0.20z m-21.80 -7.05 c-0.70 -0.30 -2.65 -1.90 -4.35 -3.60 -2.65 -2.55 -3.15 -2.90 -3.15 -2 0 2.45 4.55 6.15 7.50 6.10 l1.25 0 -1.25 -0.50z m28 -37.75 c0 -0.60 -6.40 -3.20 -8.50 -3.45 l-2.25 -0.25 2.50 0.65 c1.40 0.35 3.75 1.25 5.25 1.95 3.25 1.55 3 1.45 3 1.10z"/>
  <path d="M256 157.75 c0 -1.40 -0.20 -1.75 -1 -1.75 -0.55 0 -1 -0.25 -1 -0.50 0 -0.30 -0.45 -1 -1 -1.60 -0.55 -0.60 -1 -1.40 -1 -1.75 0 -0.35 -0.20 -0.65 -0.50 -0.65 -0.25 0 -0.50 -0.55 -0.50 -1.25 0 -0.85 -0.25 -1.25 -0.90 -1.25 -1.40 0 -4.10 -3.10 -4.10 -4.70 l0 -1.35 1.50 1.05 c1.95 1.40 6.40 6.95 8.60 10.75 2.50 4.40 2.60 4.75 1.15 4.75 -1.10 0 -1.25 -0.20 -1.25 -1.75z"/>
  <path d="M179.15 157.40 c0.95 -2.30 1.85 -2.40 1.85 -0.20 0 1.60 -0.15 1.80 -1.25 1.80 -1.20 0 -1.25 -0.05 -0.60 -1.60z"/>
  <path d="M238.50 139.25 c0 -1.50 0.15 -1.50 2.05 -0.40 1.90 1.15 1.85 1.65 -0.30 1.65 -1.55 0 -1.75 -0.15 -1.75 -1.25z"/>
  <path d="M197.50 138.60 c0 -0.35 0.85 -0.90 3.15 -2 0.20 -0.10 0.35 0.40 0.35 1.10 0 1.15 -0.20 1.30 -1.75 1.30 -0.95 0 -1.75 -0.20 -1.75 -0.40z"/>
  <path d="M202.10 136.40 c0.25 -0.70 3.90 -2.10 7.05 -2.65 1.60 -0.30 1.85 -0.25 1.85 0.60 0 0.75 -0.70 1.10 -3.35 1.80 -4.05 1 -5.80 1.10 -5.55 0.25z"/>
 </g>
 <g fill="#02ff01">
  <path d="M194.25 349.20 c-9.15 -1.45 -16.05 -4.60 -29.15 -13.45 -18.95 -12.75 -36.25 -21.55 -59.95 -30.50 -11.35 -4.30 -29.90 -9.90 -40.55 -12.20 l-4.20 -0.90 -0.45 1.20 c-1.75 4.65 0.95 14.65 6.05 22.15 5.65 8.30 16.50 16.75 24.50 19.05 3 0.85 3.85 1.70 1.25 1.20 -2.80 -0.50 -10.35 -3.50 -14.25 -5.60 -13.60 -7.50 -21.50 -16.45 -24 -27.15 -0.70 -3 -0.90 -8.95 -0.35 -11.05 l0.35 -1.30 -5.65 -1.05 c-3.05 -0.55 -7.50 -1.30 -9.85 -1.65 -4.45 -0.60 -5.50 -1.05 -5.50 -2.35 0 -0.65 0.90 -0.70 7.15 -0.40 3.90 0.15 8.90 0.45 11.10 0.65 l4.05 0.30 0.60 -1.40 c2 -4.35 7.20 -10.30 12.10 -13.85 3.40 -2.40 8.35 -4.30 13.80 -5.20 4.15 -0.70 5.50 -0.75 8.90 -0.25 8.15 1.25 15.85 4.15 23.95 9.10 10.05 6.15 14.50 9.95 29.35 24.90 19.65 19.85 24.05 23.50 38.50 31.85 10.45 6.05 25.10 7.85 36 4.45 18.20 -5.75 29.95 -18.70 34.10 -37.70 2.90 -13.20 -0.75 -28.60 -8.70 -36.85 -5.85 -6.10 -25.80 -18.50 -44.15 -27.45 -6.30 -3.10 -12.85 -6.65 -14.50 -7.85 -18.05 -13.45 -27.80 -35.25 -25.05 -56.15 1.30 -10.10 3.50 -16.55 8.15 -24.35 3.60 -6 6.80 -9.80 12.40 -14.55 4.10 -3.50 4.60 -4.10 5.40 -6.70 2.45 -7.80 10.65 -27.25 15.90 -37.80 1.35 -2.70 2.45 -5.10 2.45 -5.40 0 -0.80 -2.25 -0.50 -12.60 1.75 -23.20 5.10 -44.55 11.55 -62.15 18.90 -26.45 11.05 -44.25 21.45 -58.20 34.20 -2.55 2.35 -4.75 4.15 -4.90 4 -0.80 -0.80 11.15 -12.70 17.65 -17.65 18 -13.65 42.75 -26.50 72.20 -37.55 11.20 -4.20 30.85 -10.75 41.75 -13.85 13.10 -3.80 13.10 -3.80 1.50 -3.50 -23.10 0.65 -53.40 3.15 -71.50 5.95 -2.45 0.40 -7.55 1.20 -11.25 1.75 -3.70 0.60 -8.50 1.50 -10.65 2.05 -2.15 0.55 -7.20 1.70 -11.25 2.55 -28.30 5.85 -54.45 15.20 -72.50 25.90 -2 1.20 -3.80 2.05 -3.95 1.85 -0.45 -0.40 -0.60 -0.30 5.35 -4 16.80 -10.60 39.20 -19.60 73 -29.30 6.50 -1.90 12.65 -3.35 31 -7.30 22.20 -4.80 50.15 -9.35 76.50 -12.50 5.90 -0.70 10.95 -1.45 11.15 -1.65 0.45 -0.45 -4 -0.75 -22.65 -1.65 -26.10 -1.20 -84.05 -0.55 -97 1.10 -2.05 0.25 -7.70 0.75 -12.50 1.05 -12.30 0.75 -35.70 3.55 -48 5.70 -2.35 0.40 -4.80 0.75 -5.50 0.70 l-1.25 0 1.25 -0.50 c0.65 -0.30 3 -0.85 5.25 -1.25 2.20 -0.40 4.50 -0.85 5.15 -1 0.75 -0.15 1.10 -0.60 1.10 -1.45 0 -0.65 0.20 -1.30 0.45 -1.45 1.10 -0.70 28.95 -5.70 37.80 -6.80 2.50 -0.30 7.55 -1 11.25 -1.50 3.70 -0.50 8.55 -1.10 10.75 -1.25 2.20 -0.20 5.80 -0.55 8 -0.75 6.90 -0.80 27.60 -2.45 37.25 -3 5.10 -0.25 13.20 -0.75 18 -1.05 12.65 -0.75 73.75 -1.25 74.15 -0.55 0.20 0.25 -0.60 1.60 -1.80 2.90 -11.55 13.15 -20.85 28.30 -24.90 40.45 -1.50 4.55 -1.65 5.55 -1.70 11.25 0 6 0.05 6.40 1.60 9.65 2.90 6.05 9.50 10.90 17.90 13.10 5.05 1.30 14.60 4.30 21.15 6.70 l5.70 2.05 -0.35 -2.10 -0.35 -2.15 1.15 1 c0.65 0.55 2.55 2.25 4.20 3.80 2.60 2.40 7.35 5.05 8 4.40 0.10 -0.10 -0.05 -1.30 -0.35 -2.60 -0.25 -1.35 -0.35 -2.55 -0.20 -2.75 0.20 -0.15 2.75 2.10 5.70 5 4.35 4.30 8.45 7.40 9.75 7.40 0.15 0 -0.05 -1.50 -0.40 -3.40 -0.35 -1.85 -0.50 -3.55 -0.25 -3.75 0.20 -0.25 2.80 2.35 5.75 5.75 6.20 7.15 7.55 8.40 11.25 10.50 2.65 1.50 2.85 1.55 7.55 1.25 l4.80 -0.25 3.90 6.10 c2.15 3.30 4.70 7.25 5.65 8.70 1.60 2.45 1.70 2.75 1.05 3.95 -0.65 1.20 -0.60 1.35 1.30 3 4.85 4.15 10.15 7.05 15.40 8.45 1.85 0.50 3.35 1.05 3.35 1.25 0 0.20 -1.40 1.05 -3.15 1.90 -1.70 0.85 -4.30 2.60 -5.75 3.85 l-2.70 2.35 -3.70 -3.80 c-6.20 -6.30 -12.25 -10.55 -20.20 -14.15 -7.90 -3.55 -10.10 -6.15 -10.15 -11.85 l0 -2.90 -4.05 -2.05 c-7.85 -3.95 -28.40 -12.10 -42.80 -17 -5.70 -1.95 -20.80 -5.70 -25.70 -6.40 -6.45 -0.95 -15.05 0.15 -22.05 2.75 -5.35 2 -9.05 4.30 -14.05 8.65 -7.30 6.40 -11.60 12.85 -14.75 22.15 -1.55 4.40 -1.65 5.20 -1.85 13.25 -0.20 7.45 -0.10 9.05 0.80 12.60 1.15 4.55 4.15 11.25 6.65 14.95 2.30 3.35 7.60 8.80 11.45 11.70 3.70 2.80 12.90 7.80 20.30 11.10 4.90 2.20 11.50 5.95 17.20 9.85 1.50 1 3.75 2.35 5 3 1.25 0.65 4.75 2.80 7.75 4.80 7.25 4.80 10.60 8 14.55 13.95 1.05 1.60 2.55 3.85 3.30 4.95 0.75 1.15 1.40 2.25 1.40 2.45 0 0.20 0.45 1.35 1.05 2.50 3.95 8.10 5.50 20.05 3.70 29.10 -3.10 16 -7.70 25.65 -16.95 35.20 -14.15 14.60 -33.70 20.95 -54.55 17.75z m-57.80 -43.05 c-2.35 -2.90 -3.90 -4.60 -10.10 -10.95 -10.25 -10.50 -18.50 -16.20 -27.85 -19.30 -4.35 -1.50 -5.30 -1.60 -11.25 -1.65 -7.20 0 -9.35 0.50 -15.35 3.60 -3.50 1.80 -9.65 7.65 -9.30 8.75 0.15 0.35 3.10 1.05 7.45 1.75 21.40 3.25 48.55 10.75 64 17.60 2.75 1.25 3.25 1.25 2.40 0.20z m180.25 -145.90 c-1 -1.50 -1.90 -2.75 -2 -2.75 -0.10 0 -0.20 0.60 -0.20 1.30 0 0.80 0.60 1.85 1.55 2.75 2.40 2.25 2.65 1.75 0.65 -1.30z"/>
 </g>
 <g fill="#635552">
  <path d="M125.75 294.40 l-4 -4.15 4.15 4 c3.80 3.70 4.35 4.25 3.95 4.25 -0.05 0 -1.90 -1.85 -4.10 -4.10z"/>
  <path d="M52.60 296.50 c0 -0.95 0.10 -1.35 0.25 -0.85 0.10 0.45 0.10 1.25 0 1.75 -0.15 0.45 -0.25 0.05 -0.25 -0.90z"/>
  <path d="M266.20 288 c0 -3.15 0.05 -4.45 0.15 -2.85 0.10 1.55 0.10 4.15 0 5.75 -0.10 1.55 -0.15 0.25 -0.15 -2.90z"/>
  <path d="M85.65 273.65 c0.75 -0.10 1.95 -0.10 2.75 0 0.75 0.10 0.10 0.20 -1.40 0.20 -1.50 0 -2.15 -0.10 -1.35 -0.20z"/>
  <path d="M236.50 214 c4.90 -2.70 9.90 -6.55 14.25 -10.80 3.15 -3.15 3.35 -3.25 1.90 -1.20 -3.15 4.60 -10.05 10.20 -15.35 12.50 -4.10 1.75 -4.45 1.50 -0.80 -0.50z"/>
  <path d="M192.90 210.55 c-3.15 -2.15 -5.30 -4.30 -4.80 -4.80 0.10 -0.10 1.45 1.05 3 2.55 1.60 1.45 3.55 3 4.40 3.45 1.30 0.70 1.90 1.25 1.30 1.25 -0.10 0 -1.85 -1.10 -3.90 -2.45z"/>
  <path d="M219.75 212.35 c-1.65 -0.35 -3.20 -0.75 -3.50 -0.90 -0.25 -0.20 -2.40 -0.75 -4.75 -1.20 -8 -1.60 -13.30 -4.60 -19.10 -10.70 -1.85 -1.95 -4.05 -4.85 -4.85 -6.40 -1.45 -2.90 -3.05 -7.65 -3.05 -9.05 0 -1.10 2.85 2.70 4.85 6.50 3.55 6.80 11.40 13.55 18.30 15.85 2.65 0.90 8.95 2.15 10.60 2.10 1.60 0 7.90 -1.10 10.05 -1.80 1.40 -0.40 3.30 -1.30 4.25 -2 0.95 -0.70 2.45 -1.60 3.40 -2.05 0.95 -0.45 2.45 -1.35 3.35 -2.05 0.90 -0.65 1.80 -1.20 2 -1.15 0.15 0.05 0.60 -0.45 0.90 -1.10 0.35 -0.65 1.50 -2.25 2.55 -3.65 1.05 -1.35 2.75 -4.35 3.80 -6.60 1.05 -2.30 2.15 -4.15 2.45 -4.15 0.25 0 0.65 0 0.90 0 1.05 0.10 -1.15 6.25 -3.85 10.95 -1.05 1.80 -2.30 4.65 -2.80 6.30 -1.70 5.95 -3.40 8.25 -7.75 10.35 -1.90 0.95 -3.20 1.10 -8.50 1.20 -3.45 0.10 -7.60 -0.15 -9.25 -0.45z m18.15 -7.25 l0.75 -1.15 -1.80 1.05 c-2.10 1.25 -2.30 1.65 -0.80 1.40 0.60 -0.10 1.45 -0.65 1.85 -1.30z"/>
  <path d="M184.75 208.90 l-2 -2.15 2.15 2 c1.95 1.80 2.35 2.25 1.95 2.25 -0.10 0 -1.05 -0.95 -2.10 -2.10z"/>
  <path d="M215.25 194.75 c-5.10 -1.10 -9.65 -3.50 -14.95 -7.95 -3.75 -3.10 -4.50 -5.25 -4.55 -12.80 0 -5.55 -0.15 -6.50 -1.15 -8.35 -1.70 -3.05 -2.40 -3.50 -3.70 -2.35 -1.05 0.95 -1.05 0.95 -0.65 -0.30 1.60 -5.30 7.85 -12.20 13.80 -15.15 5.45 -2.65 9.60 -3.50 15.95 -3.20 8.25 0.40 15.15 3.40 20.80 9.05 3 3 6.70 9.30 6.70 11.35 0 0.55 -1.35 2.55 -3 4.55 -2.45 2.90 -3 3.90 -3 5.40 0 8.30 -6.05 19.40 -10.55 19.40 -0.95 0 -2.35 0.25 -3.10 0.55 -1.90 0.75 -8.90 0.65 -12.60 -0.20z m11.30 -7.70 c3.30 -1.25 12.20 -8.60 12.75 -10.50 0.20 -0.65 -0.05 -2.90 -0.50 -5 -0.90 -4.20 -1 -6.05 -0.40 -6.05 0.25 0 0.95 -0.95 1.60 -2.10 0.60 -1.20 1.50 -2.55 1.90 -3 0.65 -0.80 0.60 -1.05 -0.55 -2.50 -1.80 -2.35 -4.80 -5.40 -5.25 -5.40 -0.25 0 -0.85 -0.40 -1.40 -0.90 -2.10 -1.90 -10.40 -5.10 -13.30 -5.10 -0.80 0 -1.40 -0.20 -1.40 -0.50 0 -0.25 -0.80 -0.50 -1.75 -0.50 -0.95 0 -1.75 0.15 -1.75 0.40 0 0.20 -1.30 0.60 -2.85 0.90 -3.85 0.75 -9.55 3.05 -11.10 4.55 -0.70 0.60 -1.50 1.15 -1.80 1.15 -0.30 0 -0.75 0.40 -1.10 0.95 -0.45 0.75 -0.35 1.35 0.65 3.35 0.65 1.30 1.45 2.55 1.75 2.75 0.35 0.20 0.50 1.15 0.35 2.15 -0.10 1.05 0 1.80 0.35 1.80 0.25 0 1.25 1.10 2.10 2.40 0.90 1.30 2.30 3.05 3.15 3.95 0.80 0.90 1.50 2.15 1.50 2.80 0 1.10 0.25 1.25 2.70 1.50 2.65 0.25 5.70 1.50 6.40 2.55 0.20 0.30 0.40 1.70 0.40 3.10 0 1.95 -0.30 3.05 -1.30 4.50 -0.75 1.05 -1.65 2.15 -2 2.35 -3.40 1.95 5.80 2.30 10.85 0.40z m-15.15 -0.70 l1.15 -0.65 -1.15 -1 c-0.65 -0.60 -2.50 -2 -4.15 -3.15 -1.65 -1.15 -4.35 -3.40 -6 -5.05 -1.60 -1.60 -3.15 -2.80 -3.35 -2.70 -0.45 0.30 -0.55 4.45 -0.10 6.60 0.35 1.85 3.20 4.95 5.40 5.90 1.95 0.85 6.70 0.85 8.20 0.05z m-2.50 -9.45 c0.70 -0.70 0.80 -2.40 0.15 -2.40 -0.90 0 -2.70 1.85 -2.35 2.40 0.45 0.75 1.45 0.75 2.20 0z"/>
  <path d="M225.80 180.20 c-0.85 -0.80 -1.10 -4.50 -0.40 -5.50 1.05 -1.60 5.75 -2.35 7 -1.10 0.35 0.35 0.60 1.90 0.60 3.50 0 2.30 -0.20 2.95 -0.95 3.40 -1.50 0.80 -5.35 0.60 -6.25 -0.30z"/>
  <path d="M172.20 176.75 c0 -3.30 0.05 -4.60 0.15 -2.85 0.10 1.70 0.10 4.40 0 6 -0.10 1.55 -0.15 0.15 -0.15 -3.15z"/>
  <path d="M159.15 176.25 c0 -1.65 0.10 -2.25 0.20 -1.35 0.10 0.90 0.10 2.25 0 3 -0.10 0.75 -0.20 0 -0.20 -1.65z"/>
  <path d="M260.55 173 c-0.35 -2.20 -0.90 -4.80 -1.20 -5.75 l-0.65 -1.80 -0.90 3.40 c-0.80 3.10 -3.10 7.65 -3.85 7.65 -0.20 0 -0.50 -1.30 -0.70 -2.85 -0.80 -6.95 -4.05 -14.90 -7.35 -17.95 l-1.55 -1.45 1.15 1.60 c2.05 2.85 0.65 2.35 -2.25 -0.75 -4.15 -4.50 -11.35 -8.90 -16.95 -10.40 -3.50 -0.95 -12.35 -0.90 -16.05 0.05 -3.85 1 -9.45 3.60 -12 5.50 -3.15 2.40 -3.65 2.55 -1.75 0.50 l1.75 -1.90 -1.55 1.05 c-0.85 0.55 -2.95 2.60 -4.75 4.45 -4.55 4.85 -6.65 9.40 -8.75 19.05 -0.10 0.60 -0.40 1.10 -0.60 1.10 -0.20 0 -1.35 -1.50 -2.55 -3.25 -1.20 -1.80 -2.35 -3.25 -2.55 -3.25 -0.25 0 -0.65 1.20 -0.95 2.65 -0.30 1.40 -0.60 3.15 -0.75 3.85 -0.15 0.70 -0.15 -0.90 0 -3.55 0.35 -7.75 2.65 -13.65 8.10 -20.80 7.65 -10 17.45 -15.55 30.55 -17.15 4.60 -0.60 7.05 -0.30 7.05 0.80 0 0.50 -0.75 0.70 -2.85 0.70 -7.15 0 -16.70 3.20 -23.20 7.75 -2.85 2 -8.95 7.55 -8.95 8.15 -0.05 0.40 -3.95 5.80 -5.20 7.20 -0.45 0.50 -0.80 1.25 -0.80 1.65 0 0.45 -0.35 1.45 -0.75 2.25 -0.75 1.45 -0.75 1.50 0.25 1.50 0.55 0 1.60 0.35 2.25 0.80 1.15 0.75 1.25 0.75 1.25 -0.05 0 -1.10 3 -6.75 3.55 -6.75 0.25 0 0.45 -0.35 0.45 -0.75 0 -0.40 0.25 -0.75 0.50 -0.75 0.30 0 0.50 -0.30 0.50 -0.70 0 -1.10 7 -7.35 10.55 -9.45 1.75 -1.05 5 -2.50 7.20 -3.20 3.65 -1.25 4.65 -1.35 12 -1.35 7.35 0 8.35 0.10 12 1.35 2.20 0.70 5.45 2.15 7.25 3.20 3.45 2.05 11 8.85 11 9.95 0 0.40 0.20 0.70 0.50 0.70 0.25 0 1.20 1.35 2.10 3 0.90 1.65 1.75 3 1.90 3 0.40 0 2 -3 2 -3.80 0 -0.40 -0.80 -1.90 -1.75 -3.35 -0.95 -1.40 -1.75 -2.80 -1.75 -3.10 0 -0.30 -0.45 -0.80 -1 -1.15 -0.70 -0.40 -1 -1.15 -1 -2.45 l0 -1.80 1.05 0.95 c1.60 1.45 5.85 7.90 7.50 11.40 0.75 1.65 1.75 4.40 2.20 6.05 0.75 2.90 1.65 12.25 1.15 12.25 -0.10 0 -0.50 -1.80 -0.85 -4z"/>
  <path d="M243.65 143.50 c-0.15 -0.55 -0.70 -1 -1.20 -1 -0.55 0 -0.95 -0.20 -0.95 -0.50 0 -0.25 -0.30 -0.50 -0.70 -0.50 -0.40 0 -1.05 -0.30 -1.40 -0.65 -1.80 -1.75 -13.25 -5.85 -16.25 -5.85 -0.85 0 -1.15 -0.30 -1.15 -1.05 0 -1 0.15 -1.05 2.60 -0.75 6.70 0.90 16.35 5.25 21.15 9.50 l2 1.75 -1.90 0.05 c-1.55 0 -2 -0.20 -2.20 -1z"/>
  <path d="M259.75 124.40 l-2 -2.15 2.15 2 c1.95 1.80 2.35 2.25 1.95 2.25 -0.10 0 -1.05 -0.95 -2.10 -2.10z"/>
  <path d="M209.60 94.50 c0 -0.95 0.10 -1.35 0.25 -0.85 0.10 0.45 0.10 1.25 0 1.75 -0.15 0.45 -0.25 0.05 -0.25 -0.90z"/>
  <path d="M204 81.05 c0 -0.25 -0.40 -0.60 -0.85 -0.70 -0.70 -0.20 -0.60 -0.25 0.25 -0.30 0.65 -0.05 1.10 0.25 1.10 0.70 0 0.40 -0.10 0.75 -0.25 0.75 -0.15 0 -0.25 -0.20 -0.25 -0.45z"/>
  <path d="M197.90 67.15 c0.60 -0.10 1.50 -0.10 2 0 0.45 0.15 -0.05 0.25 -1.15 0.20 -1.10 0 -1.50 -0.10 -0.85 -0.20z"/>
  <path d="M215.25 52.50 c0.15 -0.25 1.05 -0.50 1.90 -0.45 1.55 0.05 1.55 0.05 0.35 0.45 -1.80 0.55 -2.60 0.55 -2.25 0z"/>
  <path d="M103.15 51.15 c0.75 -0.10 1.95 -0.10 2.75 0 0.75 0.10 0.10 0.20 -1.40 0.20 -1.50 0 -2.15 -0.10 -1.35 -0.20z"/>
  <path d="M200.15 51.15 c0.45 -0.10 1.25 -0.10 1.75 0 0.45 0.15 0.05 0.25 -0.90 0.25 -0.95 0 -1.35 -0.10 -0.85 -0.25z"/>
  <path d="M114.65 50.65 c0.75 -0.10 1.85 -0.10 2.50 0 0.60 0.10 0 0.20 -1.40 0.20 -1.35 0 -1.90 -0.10 -1.10 -0.20z"/>
  <path d="M187.65 50.65 c0.75 -0.10 1.95 -0.10 2.75 0 0.75 0.10 0.10 0.20 -1.40 0.20 -1.50 0 -2.15 -0.10 -1.35 -0.20z"/>
  <path d="M151.15 40.15 c0.45 -0.10 1.25 -0.10 1.75 0 0.45 0.15 0.05 0.25 -0.90 0.25 -0.95 0 -1.35 -0.10 -0.85 -0.25z"/>
  <path d="M235.25 39 l-3.50 -0.30 3.35 -0.10 c1.85 -0.05 3.50 0.15 3.65 0.40 0.15 0.30 0.25 0.45 0.15 0.40 -0.10 -0.05 -1.70 -0.20 -3.65 -0.40z"/>
  <path d="M191.90 38.65 c0.60 -0.10 1.60 -0.10 2.25 0 0.60 0.10 0.10 0.20 -1.15 0.20 -1.25 0 -1.75 -0.10 -1.10 -0.20z"/>
 </g>
 <g fill="#847d7e">
  <path d="M217.40 210.75 c-0.20 -0.20 -1.75 -0.45 -3.50 -0.50 -4.30 -0.25 -9.95 -2.05 -10.25 -3.30 -0.20 -0.65 -0.70 -0.95 -1.70 -0.95 -1.20 0 -1.45 -0.20 -1.45 -1.25 0 -0.70 0.10 -1.25 0.20 -1.25 0.15 0 1.30 0.55 2.65 1.25 3.90 2.10 13.45 4.55 15.95 4.15 3.90 -0.70 9.35 -2 10.90 -2.65 1 -0.45 1.80 -0.60 1.80 -0.40 0 0.25 0.20 0.15 0.40 -0.15 0.20 -0.30 1.95 -1.55 3.85 -2.80 3.75 -2.40 7.85 -6.45 10.10 -9.95 0.80 -1.20 2.15 -3 3.10 -3.95 1.50 -1.60 1.60 -1.65 1.30 -0.50 -0.90 3.05 -3.75 7.95 -6.75 11.45 -1.80 2.10 -3.65 4.65 -4.10 5.70 -1 2.05 -4 3.95 -4.90 3.05 -0.40 -0.40 -1.90 -0.25 -4.90 0.40 -2.40 0.55 -5.45 1.05 -6.85 1.15 -1.35 0.05 -3.20 0.30 -4 0.50 -0.85 0.15 -1.65 0.15 -1.85 0z m19.60 -5.50 c0.50 -0.60 0.50 -0.75 -0.20 -0.75 -0.45 0 -0.80 0.35 -0.80 0.75 0 0.40 0.10 0.75 0.20 0.75 0.10 0 0.45 -0.35 0.80 -0.75z"/>
  <path d="M195.15 202.20 c-2.10 -1.65 -5.65 -6.20 -7.40 -9.60 -1.40 -2.70 -1.40 -3.75 0 -2.60 1.45 1.20 6.75 8.45 6.75 9.25 0 0.40 0.45 0.75 1 0.75 1.15 0 1.65 0.90 1.40 2.45 -0.15 1 -0.20 1 -1.75 -0.25z"/>
  <path d="M214.75 189.50 c-1.10 -0.20 -2.65 -0.65 -3.50 -1 l-1.50 -0.55 2.50 -1.55 c5.55 -3.45 6.85 -7.85 2.90 -9.55 -3.40 -1.45 -3.95 -1.45 -4 -0.20 -0.20 2.15 -3 3.50 -5.15 2.35 -2.15 -1.15 -1.45 -4.95 1.05 -5.75 0.60 -0.20 0.85 -0.50 0.60 -0.70 -0.60 -0.35 -4.85 -5.65 -5.60 -6.90 -0.50 -0.85 -0.65 -0.80 -1.80 0.60 -1.45 1.70 -3.25 7.05 -3.25 9.55 0 0.95 -0.20 1.70 -0.50 1.70 -0.25 0 -0.50 -1 -0.50 -2.25 0 -2.80 0.95 -7.25 1.55 -7.25 0.25 0 0.45 -0.50 0.45 -1.15 0 -0.65 0.65 -2.20 1.50 -3.50 0.80 -1.30 1.25 -2.35 1 -2.35 -0.25 0 -0.90 -1 -1.45 -2.25 -1.25 -2.80 -2.20 -3.20 -4.10 -1.80 -2.30 1.70 -1.70 0.25 1.10 -2.70 2.80 -2.95 6.70 -5.80 9.60 -7 1.85 -0.75 1.85 -0.75 1.85 0.40 0 0.90 -0.50 1.40 -1.95 2.10 -1.55 0.70 -1.90 1.05 -1.55 1.70 0.25 0.45 0.55 1.40 0.70 2.15 0.30 1.30 0.35 1.30 1.85 0.55 2.25 -1.15 6.40 -2.15 8.85 -2.15 2.05 0 2.10 0.05 2.10 1.70 0 1.60 -0.10 1.70 -2.25 1.95 -1.25 0.10 -3.75 0.95 -5.55 1.85 l-3.20 1.55 1.50 1.95 c0.80 1.05 1.50 2.15 1.50 2.40 0 1.20 5.20 5.05 7.60 5.60 2.95 0.75 3.15 1.30 2.70 7.90 -0.25 3.30 -0.65 5.45 -1.35 6.80 l-1 1.90 2.90 -0.20 c2.90 -0.20 8.60 -2.40 9.70 -3.70 0.45 -0.60 0.20 -0.70 -1.50 -0.70 -3 0 -3.80 -1 -3.80 -4.65 0.05 -3.80 0.85 -4.50 4.70 -4.20 3.35 0.25 4.05 1.10 4.05 4.70 l0 2.65 1.40 -0.85 c4.35 -2.70 4.90 -4.50 3.10 -9.65 -1.15 -3.25 -1.25 -5.30 -0.30 -5.65 0.35 -0.15 0.80 -1.05 1 -2 0.20 -0.95 0.75 -2.30 1.30 -3 1.45 -1.80 1.30 -3.35 -0.25 -3.35 -0.90 0 -1.25 -0.25 -1.25 -1 0 -0.75 -0.35 -1 -1.25 -1 -0.70 0 -1.25 -0.20 -1.25 -0.50 0 -0.25 -0.35 -0.50 -0.75 -0.50 -0.40 0 -0.75 -0.20 -0.75 -0.50 0 -0.25 -0.35 -0.50 -0.75 -0.50 -0.45 0 -0.75 -0.45 -0.75 -1.25 0 -1.60 0.25 -1.55 3 0.25 3.25 2.15 6.40 5.35 8.05 8.20 l1.40 2.50 -1.05 0.50 c-0.60 0.30 -1.75 1.70 -2.55 3.05 -0.80 1.40 -1.60 2.55 -1.85 2.65 -0.20 0.05 -0.05 1.40 0.30 3 0.40 1.55 0.70 4.15 0.70 5.70 0 2.70 -0.10 2.95 -2.10 4.80 -8.50 7.85 -11 9.15 -17.90 9.40 -2.35 0.10 -5.15 -0.05 -6.25 -0.30z m15.80 -10.50 c1.15 -0.65 1.30 -3.10 0.20 -4 -0.80 -0.65 -2.40 -0.30 -3.50 0.80 -0.95 1 -0.95 1.95 0.05 2.90 0.90 0.95 1.90 1 3.25 0.30z m-22.05 -3.20 c-0.65 -0.65 -1.75 0.35 -1.25 1.20 0.25 0.40 0.55 0.40 1.05 -0.05 0.50 -0.40 0.60 -0.75 0.20 -1.15z"/>
  <path d="M260.30 169.45 c-0.15 -0.40 -0.60 -2.05 -1.05 -3.70 -0.45 -1.65 -1.15 -3.80 -1.55 -4.75 l-0.75 -1.70 -1.65 3.20 c-0.95 1.80 -2 3.30 -2.40 3.35 -0.40 0.10 -1.45 -1.50 -2.55 -3.80 -1.20 -2.45 -3.10 -5.25 -4.95 -7.30 l-3.05 -3.30 1.95 0.15 c1.80 0.15 1.95 0.30 2.10 1.80 0.15 1.30 0.35 1.60 1.40 1.60 1 0 1.20 0.25 1.20 1.50 0 1.15 0.20 1.50 1 1.50 0.55 0 1 0.35 1 0.75 0 1.25 0.95 0.85 1.95 -0.80 0.90 -1.45 0.90 -3.45 0.05 -3.45 -0.55 0 -2.50 -3.35 -2.50 -4.30 0 -0.40 -0.30 -0.70 -0.60 -0.70 -0.95 0 -5.40 -4.70 -5.40 -5.65 0 -0.55 -0.40 -0.85 -1.25 -0.85 -0.70 0 -1.25 -0.20 -1.25 -0.50 0 -0.25 -0.35 -0.50 -0.75 -0.50 -0.40 0 -0.75 -0.35 -0.75 -0.75 0 -0.45 -0.45 -0.75 -1.25 -0.75 -1 0 -1.25 -0.25 -1.25 -1.25 0 -0.70 0.15 -1.25 0.30 -1.25 0.20 0 1.70 0.85 3.40 1.85 6.05 3.70 12.60 11.40 16.35 19.40 1.45 3.05 3.30 10.10 2.75 10.60 -0.15 0.15 -0.40 0 -0.50 -0.40z"/>
  <path d="M176.25 166.40 c0.40 -2.55 2.45 -7.95 3.90 -10.40 0.60 -0.95 2.30 -3.45 3.85 -5.50 l2.75 -3.75 0.15 1.75 c0.10 0.95 -0.05 1.80 -0.35 1.90 -0.30 0.10 -0.55 0.50 -0.55 0.90 0 0.40 -0.35 0.70 -0.75 0.70 -0.40 0 -0.75 0.45 -0.75 1 0 0.55 -0.20 1 -0.50 1 -0.25 0 -0.50 0.35 -0.50 0.80 0 0.45 -0.45 0.90 -1 1.05 -0.65 0.15 -1 0.70 -1 1.40 0 0.65 -0.35 1.50 -0.75 1.95 -1.05 1.05 -0.95 1.30 0.65 1.30 0.75 0 1.65 0.25 2 0.60 0.45 0.45 0.65 0.35 0.90 -0.25 0.15 -0.45 0.60 -0.85 1 -0.85 0.40 0 0.70 -0.50 0.70 -1.25 0 -0.70 0.25 -1.25 0.50 -1.25 0.30 0 0.50 -0.35 0.50 -0.75 0 -0.40 0.25 -0.75 0.50 -0.75 0.30 0 0.50 -0.35 0.50 -0.75 0 -0.50 0.50 -0.75 1.50 -0.75 l1.55 0 -1.95 2.90 c-2.30 3.35 -3.85 6.30 -4.30 8.25 -0.40 1.70 -1.05 1.70 -3.45 0.05 -2.45 -1.65 -3.50 -1.40 -4.05 0.95 -0.65 2.55 -1.45 2.35 -1.05 -0.25z"/>
  <path d="M218 153.75 l0 -1.75 3.25 0 3.25 0 0 1.75 0 1.75 -3.25 0 -3.25 0 0 -1.75z"/>
  <path d="M194.50 149.50 c0 -1.15 0.20 -1.50 1 -1.50 0.55 0 1 -0.35 1 -0.75 0 -0.40 0.35 -0.75 0.75 -0.75 0.40 0 0.75 -0.20 0.75 -0.50 0 -0.25 0.80 -0.50 1.75 -0.50 0.95 0 1.75 0.15 1.75 0.40 -0.05 0.20 -1.60 1.40 -3.50 2.75 l-3.50 2.35 0 -1.50z"/>
  <path d="M238.75 148.70 c-4.65 -3.25 -10.15 -5.50 -15.85 -6.45 -2.45 -0.40 -2.60 -1.75 -0.25 -1.75 3.50 0 14.35 3.45 14.35 4.55 0 0.25 0.35 0.45 0.75 0.45 0.40 0 0.75 0.25 0.75 0.50 0 0.30 0.35 0.50 0.75 0.50 0.40 0 0.75 0.25 0.75 0.50 0 0.30 0.35 0.50 0.75 0.50 0.50 0 0.75 0.50 0.75 1.50 0 0.85 -0.05 1.50 -0.10 1.45 -0.10 0 -1.25 -0.80 -2.65 -1.75z"/>
  <path d="M228 148.10 c0 -0.40 -5.70 -1.60 -7.75 -1.60 -0.95 0 -1.25 -0.25 -1.25 -1.05 0 -0.95 0.20 -1 2.90 -0.70 3.55 0.45 9.20 2.30 9.50 3.15 0.10 0.40 -0.40 0.60 -1.60 0.60 -1 0 -1.80 -0.15 -1.80 -0.40z"/>
  <path d="M210.50 146.30 c0 -0.75 0.85 -1.05 4.65 -1.55 2.10 -0.35 2.35 -0.25 2.35 0.60 0 0.85 -0.45 1.05 -2.60 1.35 -3.80 0.45 -4.40 0.40 -4.40 -0.40z"/>
  <path d="M204 143.75 c0 -1.20 1.10 -1.75 3.60 -1.75 0.70 0 1.40 -0.20 1.50 -0.45 0.10 -0.25 1.55 -0.65 3.30 -0.85 2.65 -0.30 3.10 -0.20 3.10 0.45 0 0.55 -0.65 0.90 -1.85 1.10 -1.05 0.15 -3.65 0.85 -5.75 1.45 l-3.90 1.20 0 -1.15z"/>
  <path d="M189.90 143.85 c0.30 -0.35 1.60 -1.40 2.85 -2.30 l2.25 -1.60 0 1.50 c0 1.20 -0.20 1.55 -1 1.55 -0.55 0 -1 0.35 -1 0.75 0 0.55 -0.55 0.75 -1.80 0.75 -1.45 0 -1.70 -0.15 -1.30 -0.65z"/>
  <path d="M232.90 137.85 c-0.80 -0.30 -1.40 -0.70 -1.40 -0.95 0 -0.20 -0.65 -0.40 -1.50 -0.40 -1.20 0 -1.50 -0.20 -1.50 -1.05 0 -0.95 0.20 -1.05 1.50 -0.75 2.45 0.45 7.15 2.50 7.40 3.20 0.25 0.75 -2.55 0.75 -4.50 -0.05z"/>
  <path d="M201.50 136.95 c0 -0.80 3.25 -1.95 8.25 -3 5.60 -1.15 5.75 -1.15 5.75 0 0 0.75 -0.50 1 -2.50 1.25 -1.40 0.20 -3.95 0.80 -5.65 1.30 -3.45 1.10 -5.85 1.30 -5.85 0.45z"/>
  <path d="M223.15 135.15 c-1.25 -0.15 -1.65 -0.45 -1.65 -1.25 0 -0.90 0.20 -0.95 1.90 -0.70 4.05 0.70 4.60 0.90 4.60 1.60 0 0.70 -1.20 0.80 -4.85 0.35z"/>
  <path d="M191.65 67.15 c0.45 -0.10 1.25 -0.10 1.75 0 0.45 0.15 0.05 0.25 -0.90 0.25 -0.95 0 -1.35 -0.10 -0.85 -0.25z"/>
 </g>
 <g fill="#928a8a">
  <path d="M212.40 210.15 c-1 -0.25 -1.20 -1.40 -0.40 -1.90 0.30 -0.20 1.20 -0.15 2.05 0 1.05 0.25 1.45 0.60 1.35 1.15 -0.15 0.85 -1.45 1.20 -3 0.75z"/>
  <path d="M221 209.30 c0 -0.65 1.40 -1.30 2.90 -1.30 0.30 0 0.60 0.45 0.60 1 0 0.80 -0.35 1 -1.75 1 -1.15 0 -1.75 -0.25 -1.75 -0.70z"/>
  <path d="M204.65 208 c-2.40 -1.10 -2.70 -1.75 -0.95 -2.10 1.75 -0.35 4.80 1 4.80 2.15 0 1.20 -1.10 1.15 -3.85 -0.05z"/>
  <path d="M228.50 208.05 c0 -0.70 0.70 -1.10 2.90 -1.75 1.60 -0.45 3.25 -0.80 3.70 -0.80 0.45 0 1.15 -0.55 1.60 -1.25 0.55 -0.85 1.30 -1.25 2.25 -1.25 l1.40 0 -1 2.05 c-1.05 2.10 -2.55 3.05 -4.15 2.65 -0.55 -0.15 -1.95 0.10 -3.15 0.55 -2.85 1 -3.55 0.95 -3.55 -0.20z"/>
  <path d="M198.70 204.80 c-4.40 -3 -9.35 -8.55 -10.70 -12 -0.70 -1.90 0.35 -1.65 2.20 0.55 4.15 4.85 6.30 6.95 9.30 9.05 1.80 1.25 3.35 2.35 3.45 2.40 0.15 0.15 -1.25 1.70 -1.55 1.70 -0.10 0 -1.30 -0.75 -2.70 -1.70z"/>
  <path d="M241.35 199.10 c1.60 -1.60 3.70 -4.05 4.65 -5.45 0.95 -1.45 1.95 -2.65 2.15 -2.65 0.25 0 0.85 -0.50 1.40 -1.10 l0.95 -1.15 -0.50 1.35 c-0.75 2.15 -2.30 5 -3.90 7.20 -1.25 1.70 -1.75 2.05 -2.80 1.85 -1.15 -0.25 -1.30 -0.10 -1.30 1.30 0 1.45 -0.10 1.55 -1.80 1.55 l-1.80 0 2.95 -2.90z"/>
  <path d="M215.60 187.15 l-2.65 -0.20 2.30 -2.55 c1.25 -1.35 2.25 -2.70 2.25 -2.95 0 -0.25 0.25 -0.45 0.50 -0.45 0.30 0 0.50 0.70 0.50 1.50 0 1.35 0.15 1.50 1.65 1.50 0.85 -0.05 2.75 -0.45 4.10 -0.90 6.65 -2.30 17.10 -10.10 13.60 -10.10 -0.35 0 -1.20 -0.75 -1.85 -1.60 -0.65 -0.90 -1.60 -1.95 -2.10 -2.30 -0.55 -0.40 -0.90 -1.30 -0.90 -2.40 0 -1.55 0.15 -1.70 1.40 -1.70 1.30 0 1.35 -0.10 1.20 -2 -0.15 -1.55 -0.05 -2 0.60 -2 0.80 0 0.95 -0.50 1.55 -4.20 0.20 -1.30 0.60 -2 1.30 -2.15 1.55 -0.45 1.10 -1.15 -0.80 -1.15 -1.60 0 -1.75 -0.10 -1.75 -1.55 l0 -1.50 1.40 1 c0.80 0.55 2.25 1.90 3.25 3 1.80 2 3.35 4.40 2.45 3.85 -0.80 -0.45 -3 2.50 -3.40 4.50 -0.20 1 -0.60 1.90 -0.95 2 -0.40 0.20 -0.35 1 0.40 3.10 0.55 1.55 1 4.15 1.05 5.75 0.05 2.75 -0.05 3 -1.75 4.50 -2.65 2.30 -9.25 6.40 -12.45 7.65 -3 1.20 -6.75 1.65 -10.90 1.35z"/>
  <path d="M205.75 178.50 c-0.90 -1 -0.85 -1 1.15 -1 1.15 0 2.10 -0.20 2.10 -0.40 0 -0.85 -1.25 -1.60 -2.70 -1.60 -1.40 0 -1.45 0 -0.55 -1 0.50 -0.55 1.45 -1 2.10 -1 1.40 0 3.15 1.65 3.15 2.95 0 1.10 -2.20 3.05 -3.50 3.05 -0.45 0 -1.25 -0.45 -1.75 -1z"/>
  <path d="M218.25 176.05 c0.50 -4.20 0.15 -4.85 -2.70 -5.55 -2.30 -0.55 -7.55 -4.40 -7.55 -5.55 0 -0.85 -2.60 -3.95 -3.25 -3.95 -1 0 -4.60 4.55 -6 7.55 -0.70 1.50 -1.40 3.75 -1.55 5.10 -0.50 3.60 -1.40 2.95 -1 -0.75 0.65 -5.75 3.70 -11.60 5.80 -11.05 0.80 0.20 1 0 1 -1 0 -0.85 0.60 -1.80 1.90 -2.85 1 -0.90 1.35 -1.35 0.70 -1.05 -1.50 0.80 -2.05 0.35 -2.40 -1.95 -0.45 -2.85 -1.20 -3.25 -3.65 -2.05 -1.10 0.60 -2.10 1.25 -2.30 1.50 -0.15 0.30 -1 1 -1.90 1.65 l-1.60 1.15 1.15 -1.60 c2.65 -3.75 10.95 -9.05 15.50 -9.95 1.40 -0.30 1.60 -0.20 1.60 0.75 0 0.55 -0.20 1.05 -0.45 1.05 -0.25 0 -1.10 0.20 -1.80 0.50 l-1.30 0.50 1.05 1.90 1.10 1.95 2.80 -0.45 c3.85 -0.65 11.20 -0.05 14.45 1.20 2.50 0.90 2.65 1.05 2.65 2.70 0 1.50 -0.15 1.70 -1.35 1.70 -0.80 0 -2.60 -0.45 -4.05 -1 -3.60 -1.40 -9.10 -1.35 -12.90 0.05 -1.55 0.60 -2.60 1.20 -2.35 1.40 0.25 0.15 1.20 1.60 2.10 3.15 2.15 3.85 3.95 5.25 7.55 5.95 2.85 0.55 3 0.65 3 2.05 0 0.80 -0.50 2.10 -1.10 2.90 -0.65 0.95 -1.15 2.45 -1.30 4.25 -0.20 2.35 -0.35 2.75 -1.20 2.75 -0.90 0 -0.95 -0.25 -0.65 -2.95z"/>
  <path d="M224.50 176.75 c0 -1.90 0.15 -2.25 1 -2.25 0.80 0 0.95 0.30 0.90 1.65 -0.05 0.95 0.10 1.95 0.30 2.25 0.25 0.40 -0.10 0.60 -0.90 0.60 -1.20 0 -1.30 -0.15 -1.30 -2.25z"/>
  <path d="M229.65 173.90 c-2.25 -0.75 -2.15 -1.90 0.10 -1.90 1.55 0 1.75 0.15 1.75 1.25 0 0.70 -0.05 1.25 -0.10 1.20 -0.10 -0.05 -0.90 -0.30 -1.75 -0.55z"/>
  <path d="M260.25 169.65 c-0.45 -3.15 -2.65 -9.70 -3.75 -11.15 l-0.85 -1.15 -1.45 2.60 c-0.80 1.45 -1.80 2.55 -2.25 2.55 -0.45 0 -1.75 -1.45 -2.95 -3.25 -2.60 -3.95 -7.75 -9.15 -11.60 -11.65 -1.60 -1 -2.90 -2 -2.90 -2.20 0 -0.25 0.80 -0.40 1.75 -0.40 0.95 0 1.75 0.25 1.75 0.50 0 0.30 0.35 0.50 0.75 0.50 0.40 0 0.75 0.25 0.75 0.50 0 0.30 0.35 0.50 0.75 0.50 0.45 0 0.75 0.45 0.75 1.25 0 1.05 0.25 1.25 1.40 1.25 1.40 0 3.10 1.30 3.10 2.35 0 0.30 0.45 0.65 1 0.80 0.70 0.15 1 0.70 1 1.55 0 0.95 0.25 1.30 1 1.30 0.55 0 1 0.35 1 0.75 0 1.15 1.30 0.90 2.10 -0.35 0.70 -1 0.70 -1.35 -0.05 -2.90 -0.45 -0.95 -0.95 -1.80 -1.15 -1.90 -0.25 -0.10 -0.40 -0.95 -0.40 -1.90 0 -1.10 0.20 -1.65 0.50 -1.45 0.30 0.20 2.10 2.70 4 5.60 3.65 5.50 5.70 10.65 6.30 15.90 0.40 3.35 -0.05 3.65 -0.55 0.40z"/>
  <path d="M176.05 169.65 c-0.15 -4.70 2.65 -11.65 7.40 -18.20 4.05 -5.70 4.55 -6.10 4.55 -3.75 0 1.15 -0.25 1.95 -0.75 2.10 -0.40 0.20 -0.75 0.60 -0.75 0.95 0 0.35 -0.15 0.75 -0.35 0.85 -0.25 0.10 -0.75 0.85 -1.25 1.65 -0.70 1.35 -0.75 1.65 -0.10 2.85 0.65 1.20 0.85 1.30 1.70 0.80 0.55 -0.35 1 -0.90 1 -1.25 0 -0.40 0.60 -0.65 1.45 -0.65 l1.50 0 -2.75 4.35 c-1.50 2.40 -2.80 4.45 -2.95 4.55 -0.10 0.15 -1 -0.25 -2 -0.85 -1 -0.55 -2.10 -1.05 -2.40 -1 -1.20 0.05 -2.90 2.95 -3.55 6.05 -0.50 2.30 -0.70 2.70 -0.75 1.55z"/>
  <path d="M195 149.05 c0 -1.45 0.15 -1.55 1.80 -1.55 1.95 0 1.90 0.45 -0.30 2 l-1.50 1.05 0 -1.50z"/>
  <path d="M230.65 149.65 c-0.90 -0.45 -1.65 -1 -1.65 -1.25 0 -0.20 -0.55 -0.40 -1.25 -0.40 -0.90 0 -1.25 -0.25 -1.25 -1 0 -0.60 0.35 -1 0.80 -1 1.20 0 8.20 3.45 8.20 4 0 0.75 -3.05 0.50 -4.85 -0.35z"/>
  <path d="M222.50 146 c0 -1.05 0.50 -1.20 2.40 -0.70 1.80 0.50 1.35 1.70 -0.65 1.70 -1.40 0 -1.75 -0.20 -1.75 -1z"/>
  <path d="M246.50 145.50 c0 -1.35 0.10 -1.45 0.95 -0.95 0.50 0.35 1.15 1 1.50 1.50 0.50 0.85 0.40 0.95 -0.95 0.95 -1.35 0 -1.50 -0.15 -1.50 -1.50z"/>
  <path d="M214.50 145.80 c0 -0.75 1.50 -1.30 3.75 -1.30 2.25 0 3.75 0.55 3.75 1.30 0 0.55 -0.90 0.70 -3.75 0.70 -2.85 0 -3.75 -0.15 -3.75 -0.70z"/>
  <path d="M227.90 143.35 c-3.70 -1.15 -4.55 -2.35 -1.65 -2.35 0.95 0 1.75 0.25 1.75 0.50 0 0.30 0.80 0.50 1.75 0.50 1.55 0 1.75 0.15 1.75 1.25 0 0.70 -0.05 1.20 -0.10 1.20 -0.10 -0.05 -1.65 -0.55 -3.50 -1.10z"/>
  <path d="M207 142.55 c0 -1.05 0.80 -1.35 5.15 -1.85 2.40 -0.30 2.85 -0.20 2.85 0.45 0 0.55 -0.60 0.90 -1.85 1.10 -1.05 0.20 -2.55 0.55 -3.35 0.80 -2.15 0.65 -2.80 0.55 -2.80 -0.50z"/>
  <path d="M242.50 141.95 l0 -1.50 1.50 1.05 c2.20 1.55 2.25 2 0.30 2 -1.65 0 -1.80 -0.10 -1.80 -1.55z"/>
  <path d="M194.50 140.60 c0 -0.40 2.60 -2.10 3.20 -2.10 0.15 0 0.30 0.55 0.30 1.25 0 1.10 -0.20 1.25 -1.75 1.25 -0.95 0 -1.75 -0.20 -1.75 -0.40z"/>
  <path d="M200.60 137.40 c0.15 -0.35 0.95 -0.90 1.80 -1.25 1.55 -0.65 1.60 -0.60 1.60 0.60 0 1.10 -0.20 1.25 -1.80 1.25 -1.15 0 -1.70 -0.20 -1.60 -0.60z"/>
  <path d="M205 135.80 c0 -0.40 0.95 -0.90 2.20 -1.25 3 -0.75 3.30 -0.70 3.30 0.40 0 0.65 -0.50 1 -1.55 1.25 -2.55 0.50 -3.95 0.35 -3.95 -0.40z"/>
  <path d="M212.50 134.30 c0 -0.65 1.40 -1.30 2.90 -1.30 0.30 0 0.60 0.45 0.60 1 0 0.80 -0.35 1 -1.75 1 -1.15 0 -1.75 -0.25 -1.75 -0.70z"/>
  <path d="M221 134 c0 -1.05 0.50 -1.20 2.40 -0.70 1.80 0.50 1.35 1.70 -0.65 1.70 -1.40 0 -1.75 -0.20 -1.75 -1z"/>
 </g>
 <g fill="#9c9696">
  <path d="M222 209.60 c0 -0.65 0.65 -1.05 2.25 -1.50 3.15 -0.85 5.75 -0.80 5.75 0.10 0 0.50 -1.20 1 -3.45 1.50 -4.40 1 -4.55 1 -4.55 -0.10z"/>
  <path d="M209.90 209.65 c-1.65 -0.40 -1 -1.65 0.85 -1.65 1.40 0 1.75 0.20 1.75 1 0 1 -0.70 1.15 -2.60 0.65z"/>
  <path d="M231 207.15 c0 -0.65 0.30 -1.15 0.70 -1.15 0.40 0 1.05 -0.30 1.40 -0.65 0.35 -0.35 2.40 -1.80 4.50 -3.20 3.60 -2.45 3.85 -2.50 4 -1.50 0.15 0.75 -0.55 1.90 -2.10 3.60 -1.90 2.10 -2.70 2.60 -5.35 3.30 l-3.15 0.75 0 -1.15z"/>
  <path d="M202.10 206.70 c-2.95 -1.45 -3.30 -2.20 -1.10 -2.20 2.30 0 4 1 4 2.35 0 0.60 -0.05 1.15 -0.15 1.15 -0.10 0 -1.30 -0.60 -2.75 -1.30z"/>
  <path d="M196.50 203.05 c-1.30 -1.10 -1.50 -1.50 -0.85 -1.55 1.50 0 0.90 -0.95 -0.75 -1.10 -1.25 -0.10 -2.05 -0.70 -3.50 -2.65 -1.05 -1.35 -1.90 -2.95 -1.90 -3.50 0 -0.70 1 0.05 3.90 2.85 2.10 2.10 4.55 4.40 5.35 5.10 1.10 0.95 1.30 1.25 0.65 1.30 -0.45 0 -0.90 0.25 -1 0.50 -0.10 0.30 -0.95 -0.15 -1.90 -0.95z"/>
  <path d="M242.90 199.40 c-0.20 -1 0.25 -1.95 1.90 -4.05 1.20 -1.50 2.75 -3.10 3.50 -3.60 l1.30 -0.85 -1.60 3.05 c-0.90 1.65 -2.35 3.85 -3.25 4.90 l-1.60 1.85 -0.25 -1.30z"/>
  <path d="M216.10 185.60 l-1.15 -0.35 1.25 -1.70 c0.70 -0.90 1.35 -2.30 1.50 -3.10 0.20 -0.80 0.45 -2.10 0.60 -2.95 0.15 -0.90 0.60 -1.50 1.05 -1.50 0.65 0 0.70 0.50 0.40 3.30 l-0.35 3.35 1.45 -0.35 c5.10 -1.25 5.20 -1.30 4.40 -2.10 -1.05 -1.05 -1.05 -6.20 0 -6.20 0.40 0 0.75 -0.45 0.75 -1 0 -0.80 0.35 -1 1.75 -1 2.15 0 2.35 1.05 0.30 1.80 -3.10 1.20 -2.20 5.70 1.20 5.70 2.70 0 3.75 -3 1.75 -5 l-1 -1 1.75 0 c1.60 0 1.75 0.10 1.75 1.50 0 1.80 0.30 1.85 2.25 0.30 l1.45 -1.20 -0.95 -2.05 c-0.55 -1.10 -1.15 -2.05 -1.35 -2.05 -0.25 0 -0.40 -0.35 -0.40 -0.75 0 -0.40 -0.35 -0.75 -0.75 -0.75 -0.40 0 -1.30 -0.25 -2 -0.60 -0.95 -0.45 -1.25 -0.95 -1.25 -2.15 0 -1.50 0.20 -1.65 2.25 -2.25 1.85 -0.50 2.25 -0.85 2.25 -1.75 0 -0.65 0.10 -1.50 0.30 -1.90 0.25 -0.75 -2 -3.85 -2.85 -3.85 -0.25 0 -0.45 0.45 -0.45 1 0 0.80 -0.35 1 -1.90 1 -1.05 0 -2.10 -0.20 -2.35 -0.45 -0.30 -0.20 -1.55 -0.70 -2.85 -1.05 -1.35 -0.35 -2.40 -0.85 -2.40 -1.05 0 -0.25 -0.90 -0.45 -2 -0.45 -1.80 0 -2 0.15 -2 1.25 0 0.75 -0.30 1.25 -0.70 1.25 -0.40 0 -0.85 0.20 -1.05 0.45 -0.40 0.70 1.30 4.05 2.10 4.05 0.35 0 0.65 0.20 0.65 0.40 0 0.90 2.65 1.60 5.75 1.60 l3.25 0 0 1.70 c0 1.45 -0.20 1.70 -1.35 1.95 -2.15 0.45 -4.95 2.85 -5.95 5.20 -0.65 1.40 -1.25 2.15 -1.90 2.15 -0.80 0 -0.85 -0.25 -0.60 -1.60 0.15 -0.90 0.75 -2.25 1.30 -2.95 l0.95 -1.35 -2.95 -0.55 c-3.60 -0.70 -5.40 -2.10 -7.60 -5.95 -2.25 -4 -2.40 -4.10 -3.90 -3.35 -1.55 0.80 -5.45 4.90 -6.75 7.15 -1.05 1.75 -1.75 2.05 -1.75 0.75 0 -1.15 1.80 -4.15 2.50 -4.15 0.25 0 0.50 -0.30 0.50 -0.65 0 -0.35 0.85 -1.45 1.90 -2.40 4.65 -4.45 8.60 -5.95 16 -6 5.30 -0.10 5.35 -0.10 2.10 -0.50 -2 -0.30 -4.55 -0.25 -6.60 0.05 -4.95 0.75 -5.10 0.70 -6.30 -1.45 -0.60 -1.05 -1.45 -2.05 -1.85 -2.25 -1.50 -0.55 -6.40 1.95 -9.95 5.15 -1.30 1.20 -1.40 1.20 -0.85 0.20 0.75 -1.45 5.65 -5.45 8.55 -6.90 2.65 -1.35 9.10 -3.40 10.05 -3.20 0.40 0.10 1.45 -0.05 2.30 -0.25 2.90 -0.65 15.35 2.85 16.60 4.65 0.45 0.70 1.20 1.05 2.25 1.05 1.10 0 2.25 0.60 3.95 2.05 2.50 2.15 2.90 3.20 1.40 3.60 -0.95 0.25 -1.15 0.85 -1.80 5.25 -0.30 1.85 -0.45 2.05 -1.10 1.50 -0.45 -0.35 -0.05 0.80 0.85 2.60 2.20 4.40 2.55 8.10 0.90 10.50 -1.40 2.10 -10.45 7.70 -14.15 8.75 -3.05 0.85 -7.60 1.25 -9.15 0.85z m21.80 -16.70 c-0.80 -1.50 -1.55 -2.20 -2.40 -2.30 l-1.25 -0.15 1.40 1.30 c0.75 0.70 1.70 1.85 2.15 2.55 1.35 2 1.40 0.95 0.10 -1.40z"/>
  <path d="M206.10 178.70 c-1.40 -0.95 -1.50 -2.70 -0.10 -2.70 0.55 0 1 0.30 1 0.70 0 0.45 0.35 0.60 1 0.45 0.55 -0.15 1 -0.60 1 -0.95 0 -0.40 -0.45 -0.70 -1 -0.70 -0.65 0 -1 -0.35 -1 -1 0 -1.40 1.55 -1.30 2.95 0.20 2.30 2.45 -1.10 5.95 -3.85 4z"/>
  <path d="M196.70 171.60 c0.15 -2.70 0.40 -3.35 1.20 -3.05 0.20 0.10 0 1.45 -0.50 2.95 l-0.90 2.75 0.20 -2.65z"/>
  <path d="M176.30 167.75 c0.30 -2.95 2.80 -10.45 3.75 -11 0.25 -0.20 0.45 -0.20 0.45 -0.10 0 0.60 -2 6.45 -2.55 7.45 -0.35 0.65 -0.90 2.40 -1.30 3.90 l-0.60 2.75 0.25 -3z"/>
  <path d="M260.05 167.85 c-0.05 -1.30 -2.20 -7.25 -3.65 -10.10 l-1.30 -2.50 -2.05 2.25 c-1.15 1.25 -2.05 2.40 -2.05 2.60 0 1 -1.10 0.15 -2.85 -2.20 -1.05 -1.45 -2.20 -3.05 -2.55 -3.50 -0.60 -0.80 -0.50 -0.90 0.90 -0.90 1.20 0 1.65 0.25 1.85 1.05 0.30 1 0.35 1 1.40 -0.35 l1.15 -1.40 -1.20 -1.90 c-0.65 -1.05 -1.20 -2.60 -1.20 -3.50 l0 -1.55 1.30 1.20 c0.70 0.65 1.90 2.20 2.60 3.45 0.70 1.25 1.90 3.05 2.65 4 2.75 3.65 6 11.90 5.25 13.65 -0.10 0.35 -0.25 0.20 -0.25 -0.30z"/>
  <path d="M184.40 159.15 c-1.15 -1.30 -2.45 -4 -2.30 -4.75 0.20 -0.95 3.70 -6.15 5.50 -8.20 3.20 -3.60 9.80 -8 15.30 -10.15 l2.60 -1.05 0 1.25 c0 0.95 -0.25 1.25 -1.05 1.25 -0.55 0 -1.35 0.35 -1.80 0.75 -0.40 0.45 -1.40 0.95 -2.20 1.10 -0.80 0.15 -1.45 0.45 -1.45 0.70 0 0.25 -0.55 0.45 -1.25 0.45 -0.80 0 -1.25 0.30 -1.25 0.75 0 0.40 -0.45 0.75 -1 0.75 -0.55 0 -1 0.35 -1 0.75 0 0.40 -0.40 0.75 -0.95 0.75 -0.50 0 -1.05 0.45 -1.20 1 -0.15 0.60 -0.70 1 -1.30 1 -0.70 0 -1.05 0.30 -1.05 0.90 0 1.05 -1.45 2.60 -2.40 2.60 -0.35 0 -0.60 0.45 -0.60 1 0 0.55 -0.20 1 -0.50 1 -0.95 0 -0.50 1.50 1 3.10 l1.45 1.65 0.05 -1.25 c0 -2 3.35 -5 5.50 -5 l1.65 0 -3.75 3.90 c-2.05 2.10 -4.15 4.45 -4.65 5.25 -1 1.55 -2.25 1.75 -3.35 0.50z"/>
  <path d="M241.50 150.50 l-1.75 -1.45 1.90 -0.05 c1.75 0 1.85 0.10 1.85 1.50 0 0.85 -0.05 1.50 -0.15 1.50 -0.05 0 -0.90 -0.65 -1.85 -1.50z"/>
  <path d="M200.50 145.35 c0 -1.25 1.65 -2.35 3.50 -2.35 0.55 0 1 -0.20 1 -0.50 0 -0.25 0.80 -0.50 1.75 -0.50 1.20 0 1.75 0.25 1.75 0.75 0 0.40 -0.30 0.75 -0.60 0.75 -0.35 0 -2.10 0.70 -3.80 1.50 -1.75 0.85 -3.30 1.50 -3.40 1.50 -0.10 0 -0.20 -0.55 -0.20 -1.15z"/>
  <path d="M229.65 143.85 c-3.50 -1.20 -4.15 -2.35 -1.40 -2.35 0.95 0 1.75 0.25 1.75 0.50 0 0.30 0.70 0.50 1.50 0.50 1.25 0 1.50 0.20 1.50 1.25 0 0.70 -0.05 1.20 -0.10 1.20 -0.10 -0.05 -1.55 -0.55 -3.25 -1.10z"/>
  <path d="M211 141.50 c0 -0.80 0.35 -1 1.75 -1 2 0 2.45 1.20 0.65 1.70 -1.90 0.50 -2.40 0.35 -2.40 -0.70z"/>
  <path d="M219.40 142.15 c-4 -0.15 -4.40 -0.30 -4.40 -1.15 0 -0.85 0.35 -1 2.65 -1 1.40 0 3.80 0.15 5.25 0.30 2.10 0.30 2.60 0.50 2.60 1.25 0 0.60 -0.30 0.90 -0.85 0.85 -0.50 -0.05 -2.85 -0.20 -5.25 -0.25z"/>
  <path d="M241 142 c0 -0.25 -0.35 -0.50 -0.75 -0.50 -0.40 0 -0.75 -0.35 -0.75 -0.75 0 -0.40 -0.45 -0.75 -1 -0.75 -1.80 0 -3.50 -1.10 -3.50 -2.30 0 -1.05 0.10 -1.15 1.35 -0.65 1.90 0.70 6.90 3.80 7.65 4.70 0.55 0.65 0.35 0.75 -1.20 0.75 -1 0 -1.80 -0.20 -1.80 -0.50z"/>
  <path d="M230 136.60 c0 -0.40 -6.75 -1.60 -8.90 -1.60 -0.80 0 -1.10 -0.30 -1.10 -1.05 0 -0.95 0.20 -1 2.65 -0.70 3.15 0.40 8.80 1.70 10 2.35 1.40 0.70 1 1.40 -0.90 1.40 -0.95 0 -1.75 -0.20 -1.75 -0.40z"/>
  <path d="M209.50 134.80 c0 -0.70 0.70 -0.95 4.90 -1.55 1.85 -0.30 2.10 -0.25 2.10 0.65 0 0.80 -0.45 1 -2.60 1.30 -3.80 0.45 -4.40 0.40 -4.40 -0.40z"/>
 </g>
 <g fill="#a5a1a1">
  <path d="M210.55 209.70 c-4.25 -0.95 -8.55 -2.90 -8.55 -3.95 0 -0.55 -0.35 -0.75 -1.15 -0.65 -1.35 0.15 -3.10 -0.90 -6.20 -3.75 -2.20 -2 -4.45 -5.20 -4 -5.65 0.10 -0.15 2.20 1.45 4.65 3.55 5.35 4.60 10.85 7.45 16.60 8.65 3.25 0.65 4.10 1 4.10 1.70 0 1.05 -0.95 1.10 -5.45 0.10z"/>
  <path d="M221.50 209.55 c0 -0.85 1.25 -1.55 2.90 -1.55 1.10 0 0.65 1.85 -0.50 2.20 -1.90 0.50 -2.40 0.35 -2.40 -0.65z"/>
  <path d="M226 208.60 c0 -0.65 0.60 -1.10 2.15 -1.55 4.90 -1.45 10 -4.70 14.45 -9.20 4.20 -4.25 5.75 -4.95 4.15 -1.85 -1.10 2.15 -7.35 8.40 -7.60 7.65 -0.35 -1.05 -1.30 -0.75 -1 0.30 0.30 1.15 -1.30 3.05 -2.55 3.05 -0.45 0 -2.40 0.55 -4.35 1.25 -4.25 1.50 -5.25 1.55 -5.25 0.35z"/>
  <path d="M216.50 183.75 c0 -0.10 0.30 -0.95 0.70 -1.85 0.40 -0.90 0.90 -2.50 1.05 -3.50 0.35 -2.20 1.75 -2.70 1.75 -0.60 0 1.25 0.10 1.30 1.85 0.95 2.60 -0.45 2.65 -0.55 2.65 -2.90 0 -1.15 0.20 -2.35 0.40 -2.65 0.20 -0.35 1.75 -0.75 3.50 -0.95 2.50 -0.30 3.35 -0.20 4.40 0.50 1 0.65 1.40 0.70 2 0.20 1.05 -0.85 0.85 -1.60 -0.65 -3.05 -1.85 -1.70 -3.30 -2.40 -4.90 -2.40 -1.70 0 -6.25 2.10 -6.25 2.90 0 0.35 -0.30 0.75 -0.70 0.90 -0.40 0.15 -1 1.25 -1.35 2.50 -0.45 1.55 -0.95 2.20 -1.55 2.20 -1.20 0 -1.15 -1.65 0.10 -4.25 1.30 -2.65 3.35 -4.65 5.80 -5.55 l1.95 -0.70 -3.60 0.15 c-2 0.05 -3.65 -0.05 -3.65 -0.30 0 -0.20 -0.20 -0.30 -0.40 -0.15 -0.25 0.15 -0.75 -0.20 -1.10 -0.75 -0.40 -0.50 -0.90 -0.95 -1.15 -0.95 -1.15 0 -1.90 -1.60 -2.25 -4.85 -0.15 -1.90 -0.05 -2.20 0.95 -2.65 1.80 -0.75 -2.25 -0.05 -5.05 0.85 -5.40 1.80 -10.85 7.15 -12.90 12.80 -1.55 4.15 -1.60 4.25 -1.30 1.60 0.50 -4.20 3.75 -10.25 5.50 -10.25 0.40 0 0.65 -0.20 0.50 -0.45 -0.35 -0.55 2.65 -3 5.15 -4.25 5.20 -2.70 13.20 -3.15 18.90 -1.05 1.85 0.65 3.45 1.10 3.60 1 0.45 -0.50 -5.35 -2.70 -7.95 -3.05 -2.65 -0.35 -2.70 -0.35 -1.25 -0.85 0.85 -0.25 1.60 -0.65 1.75 -0.85 0.35 -0.55 6 -0.95 6 -0.50 0 0.25 -0.30 0.55 -0.60 0.65 -0.35 0.15 -0.15 0.30 0.50 0.30 0.60 0.05 1.70 0.40 2.35 0.85 0.75 0.50 1.25 0.60 1.25 0.25 0 -0.30 0.35 -0.55 0.80 -0.55 0.65 0 0.70 0.15 0.25 0.70 -0.45 0.55 -0.45 0.80 0 1.10 0.40 0.25 0.50 0.15 0.20 -0.35 -0.20 -0.40 0.30 0.10 1.15 1.05 2 2.25 3.25 6.20 2.10 6.60 -0.25 0.10 0.30 1.65 1.25 3.50 0.90 1.90 1.85 4.40 2.05 5.65 0.35 2.40 -0.05 3.60 -0.60 1.95 -0.80 -2.30 -2.80 -6.50 -3.50 -7.25 -0.65 -0.70 -1.05 -0.75 -2.50 -0.30 l-1.70 0.50 1.85 1.05 c2.30 1.30 5.15 5.35 5.15 7.35 0 1.15 -0.50 1.80 -2.35 3.20 -3.20 2.35 -8.75 5.10 -12.15 6 -2.55 0.70 -8 1.05 -8 0.50z m14.40 -4.55 c1.60 -1.10 1.50 -3.90 -0.10 -5 -1.65 -1.05 -3.35 -0.75 -4.25 0.85 -0.90 1.60 -0.40 3.60 1.05 4.35 1.60 0.75 2 0.70 3.30 -0.20z"/>
  <path d="M205.50 178.05 c-0.80 -1.55 -0.60 -2.95 0.60 -3.75 1.55 -1.10 2.25 -1 3.65 0.45 1.50 1.45 1.55 1.95 0.25 3.25 -1.30 1.30 -3.80 1.30 -4.50 0.05z"/>
  <path d="M176.70 165.70 c0.15 -1.90 2.70 -8.45 3.10 -8.05 0.20 0.20 -1.10 4.40 -2.05 6.60 -0.35 0.85 -0.80 1.95 -0.95 2.50 -0.15 0.55 -0.20 0.05 -0.10 -1.05z"/>
  <path d="M258.10 161.40 c-1.65 -4.25 -1.80 -4.75 -1.15 -3.90 0.70 1 2.65 6.10 2.40 6.35 -0.10 0.10 -0.65 -1 -1.25 -2.45z"/>
  <path d="M246.50 155.45 c-3.15 -3.75 -8.25 -7.75 -12.60 -9.95 -3.45 -1.70 -7.30 -2.80 -13 -3.75 -1.20 -0.20 -1.90 -0.55 -1.90 -1 0 -0.55 0.55 -0.75 1.90 -0.75 2.55 0.05 10.80 1.90 11 2.50 0.10 0.30 0.60 0.50 1.10 0.50 1.20 0 4.50 1.55 4.50 2.10 0 0.20 0.35 0.40 0.75 0.40 0.40 0 0.75 0.25 0.75 0.50 0 0.30 0.35 0.50 0.75 0.50 0.40 0 0.75 0.15 0.75 0.40 0 0.20 0.50 0.60 1.15 0.85 0.75 0.35 1.15 1 1.25 2.15 0.15 1.40 0.35 1.60 1.55 1.60 1.95 0 3.40 -2.10 2.45 -3.45 -1.30 -1.85 -4.40 -5.05 -4.90 -5.05 -0.25 0 -0.50 -0.20 -0.50 -0.50 0 -0.25 -0.35 -0.50 -0.75 -0.50 -0.40 0 -0.75 -0.20 -0.75 -0.50 0 -0.25 -0.35 -0.50 -0.75 -0.50 -0.45 0 -0.75 -0.45 -0.75 -1.25 0 -0.70 0.15 -1.25 0.40 -1.25 0.70 0 5.85 3.65 8.05 5.70 2.20 2.10 5.15 6.25 5.75 8.10 0.20 0.75 -0.20 1.70 -1.45 3.35 -1 1.30 -2 2.35 -2.20 2.35 -0.20 0 -1.35 -1.15 -2.55 -2.55z"/>
  <path d="M186.15 155.90 c-2.65 -2.95 -2.50 -4.70 0.75 -8.55 2.60 -3.05 5.05 -5.15 8.85 -7.60 3.65 -2.35 4.25 -2.45 4.25 -1 0 1 -0.25 1.25 -1.25 1.25 -0.80 0 -1.25 0.30 -1.25 0.75 0 0.40 -0.35 0.75 -0.75 0.75 -0.40 0 -0.75 0.25 -0.75 0.50 0 0.30 -0.40 0.50 -0.95 0.50 -0.50 0 -1.05 0.45 -1.20 1.05 -0.15 0.55 -0.70 1.15 -1.20 1.25 -0.50 0.15 -1.50 1.15 -2.30 2.20 l-1.35 1.90 1.30 1.05 c1.70 1.35 2.60 1.35 2.80 -0.05 0.10 -0.75 0.55 -1.20 1.30 -1.30 0.60 -0.10 1.10 -0.50 1.10 -0.90 0 -0.40 0.35 -0.70 0.75 -0.70 0.40 0 0.75 -0.20 0.75 -0.50 0 -0.25 0.25 -0.50 0.55 -0.50 0.30 0 0.85 -0.35 1.25 -0.75 0.80 -0.75 4.20 -1.05 4.20 -0.35 0 0.20 -1.65 1.35 -3.65 2.60 -1.95 1.20 -5.20 3.85 -7.20 5.85 -2 2 -3.90 3.65 -4.30 3.65 -0.35 0 -1.15 -0.50 -1.70 -1.10z"/>
  <path d="M199.45 151.50 c2.60 -2.35 7.10 -4.70 11.30 -5.75 3.80 -0.95 11.70 -0.95 15.45 0 3.75 1 10.20 4.35 12.10 6.30 l1.40 1.50 -2.15 -0.80 c-1.20 -0.40 -2.90 -0.75 -3.80 -0.75 -1.10 0 -1.85 -0.35 -2.35 -1.05 -1.15 -1.75 -7.40 -3.55 -13.20 -3.80 -6.95 -0.35 -11.45 0.70 -16.85 3.90 l-4.10 2.45 2.20 -2z"/>
  <path d="M203.50 143.70 c0 -1 0.25 -1.20 1.45 -1.20 0.80 0 1.55 -0.25 1.65 -0.50 0.15 -0.55 7.10 -2 9.70 -2 1.15 0 1.70 0.25 1.70 0.70 0 0.75 -0.85 1 -5.20 1.55 -1.35 0.20 -4 0.85 -5.90 1.50 l-3.40 1.15 0 -1.20z"/>
  <path d="M229.75 136.95 c-2.20 -0.80 -4.50 -1.45 -5.10 -1.45 -0.80 0 -1.15 -0.30 -1.15 -1 0 -1.25 0.40 -1.25 5.20 0 4.50 1.15 8.30 2.75 8.30 3.45 0 0.90 -3.05 0.50 -7.25 -1z"/>
  <path d="M201 137.50 c0 -0.75 3.65 -2.25 7.80 -3.15 7.10 -1.65 14.20 -1.70 14.20 -0.15 0 0.50 -1.35 0.75 -5.35 0.95 -5.20 0.20 -12.70 1.65 -13.05 2.45 -0.25 0.60 -3.60 0.50 -3.60 -0.10z"/>
 </g>
 <g fill="#d3d1cf">
  <path d="M211.50 209.75 c-6 -1.25 -10.05 -3.10 -14.60 -6.60 -2.75 -2.10 -5.25 -4.95 -4.80 -5.45 0.15 -0.10 2.15 1.20 4.45 2.90 8.30 6.20 14.10 8.15 23.20 7.75 8.35 -0.30 14.45 -2.85 21.70 -8.90 4.90 -4.10 4.80 -2.55 -0.20 2.40 l-4.50 4.50 -5.75 1.90 c-4.80 1.50 -6.65 1.85 -11 2.05 -3.30 0.10 -6.45 -0.10 -8.50 -0.55z"/>
  <path d="M218.30 181.05 c-0.40 -0.75 0.65 -8.05 1.40 -9.35 1.70 -3.20 5.10 -5.70 7.65 -5.70 1.80 0 1.50 1.80 -0.35 2.20 -0.85 0.15 -2 0.75 -2.60 1.30 -0.60 0.55 -1.40 1 -1.75 1 -0.35 0 -0.65 0.45 -0.65 1 0 0.55 -0.20 1 -0.45 1 -0.45 0 -1.15 2.60 -0.80 2.95 0.30 0.25 3.25 -1.15 3.25 -1.55 0 -0.25 0.45 -0.85 1 -1.40 0.75 -0.75 1.65 -1 3.55 -1 1.80 0 3 -0.35 4.20 -1.15 l1.70 -1.15 -2.25 -0.65 c-1.60 -0.50 -2.20 -0.90 -2.20 -1.60 0 -1.80 3.55 -0.80 5.85 1.65 0.60 0.60 1.35 1.80 1.65 2.60 0.60 1.65 0 2.60 -2.95 4.40 -1.30 0.85 -1.80 0.95 -1.95 0.45 -0.45 -1.35 -2.15 -2.55 -3.55 -2.55 -2.25 0 -3.20 1.25 -2.90 3.85 0.20 2.10 0.20 2.15 -1.60 2.60 -3.80 1.05 -6.05 1.45 -6.25 1.10z"/>
  <path d="M206.20 177.75 c-1.20 -1.20 -1.25 -1.40 -0.55 -2.40 0.80 -1.25 3.05 -1.70 4.15 -0.80 1.05 0.85 0.85 2.80 -0.40 3.65 -1.50 1.05 -1.75 1 -3.20 -0.45z"/>
  <path d="M238.60 169.35 c-1.45 -3.35 -3.80 -6.25 -5.20 -6.45 -0.65 -0.10 -1.50 -0.85 -2.05 -1.90 -1.05 -2 -4.10 -4.15 -7.10 -4.95 -3.40 -0.90 -9.85 -0.70 -13 0.50 -5.75 2.15 -11.10 7.25 -13.25 12.70 -1.05 2.45 -1.05 2.50 -0.80 0.60 0.85 -6.50 8.15 -13.55 15.85 -15.30 5.35 -1.25 11.90 -0.40 16.95 2.25 1.25 0.60 2.85 1.35 3.55 1.65 1.45 0.50 5.60 8 6.40 11.50 0.60 2.85 0.05 2.55 -1.35 -0.60z"/>
  <path d="M177.30 163.50 c0.15 -0.70 0.50 -1.60 0.75 -2 0.35 -0.65 0.40 -0.65 0.40 0 0 0.40 -0.30 1.30 -0.75 2 l-0.75 1.25 0.35 -1.25z"/>
  <path d="M242.10 150.90 c-5.35 -4.75 -10.90 -7.40 -18.70 -8.90 -1.90 -0.40 -2.90 -0.80 -2.90 -1.30 0 -0.40 0.50 -0.70 1.10 -0.70 2.10 0 7.40 1.10 7.40 1.55 0 0.25 0.65 0.45 1.45 0.45 1.45 0 6.05 1.70 6.55 2.45 0.15 0.20 1 0.65 1.85 0.95 1.35 0.45 1.80 0.40 2.40 -0.20 0.65 -0.70 0.65 -0.90 -0.10 -1.90 -2 -2.65 -10.15 -6.40 -16.10 -7.40 -2.95 -0.50 -3.55 -0.75 -3.55 -1.55 0 -0.90 0.25 -0.95 2.90 -0.65 3.85 0.45 11.90 3.25 15.35 5.35 5.35 3.20 9.75 7.80 9.75 10.15 0 1.25 -2.60 4.30 -3.70 4.30 -0.40 0 -2.10 -1.20 -3.70 -2.60z"/>
  <path d="M190.25 152.30 c-4 -1.75 -4 -4.15 -0.05 -8 4.95 -4.85 12.05 -8.50 19.40 -10 4.90 -1 5.40 -1 5.40 0.15 0 0.75 -0.50 1 -2.55 1.25 -3.50 0.45 -10.40 3.05 -13.30 4.95 l-2.40 1.60 2.70 0.35 c1.75 0.20 3.50 0.05 5 -0.40 1.25 -0.35 2.90 -0.70 3.65 -0.70 0.70 0 1.40 -0.25 1.50 -0.50 0.10 -0.30 1.65 -0.65 3.55 -0.85 2.85 -0.25 3.35 -0.20 3.35 0.50 0 0.55 -0.60 0.90 -1.85 1.10 -4.15 0.70 -8.05 1.85 -11.10 3.25 -3.35 1.60 -8.65 5.15 -10.25 6.95 -1.10 1.20 -1.10 1.20 -3.05 0.35z"/>
  <path d="M232.55 149.25 c-4.90 -2.50 -8.10 -3.25 -14.25 -3.25 -5.15 0 -9.75 1 -14.05 3 -1.65 0.80 -3.05 1.35 -3.15 1.30 -0.40 -0.45 6.40 -3.45 9.70 -4.30 8.55 -2.20 19.60 -0.25 25.20 4.45 1.75 1.40 1.35 1.30 -3.45 -1.20z"/>
 </g>
 <g fill="#e1ddde">
  <path d="M212.25 209.75 c-5.45 -1 -11.20 -3.45 -13.60 -5.75 -2.10 -1.95 -1.50 -1.80 3.85 0.80 4.50 2.15 7.65 3.10 12 3.65 3.85 0.50 9.55 0.05 13.25 -1 2.15 -0.60 7.75 -3.40 12.15 -6 3.30 -1.95 2.80 -0.85 -1.20 2.55 -2 1.75 -3.75 2.70 -7.35 3.90 -7.60 2.55 -12.70 3.05 -19.10 1.85z"/>
  <path d="M219.65 177.15 c-0.35 -0.15 -0.65 -0.75 -0.65 -1.40 0 -0.85 0.35 -1.25 1.40 -1.50 1.55 -0.35 4.70 -1.80 5.10 -2.25 0.15 -0.20 1.80 -0.85 3.70 -1.55 4.70 -1.60 5 -2.65 0.75 -2.25 -1.75 0.10 -4.15 0.40 -5.30 0.55 -1.95 0.35 -2.15 0.50 -2.15 1.80 0 0.80 -0.20 1.45 -0.50 1.45 -0.25 0 -0.50 0.35 -0.50 0.75 0 0.45 -0.45 0.75 -1.20 0.75 -1.75 0 -1.15 -1.65 1.50 -4.30 3.20 -3.25 7.50 -4.05 11.55 -2.25 1.70 0.80 3.15 2.25 3.15 3.20 0 0.10 -0.90 0.80 -2 1.55 -1.45 0.95 -2.60 1.30 -4.50 1.30 -1.85 0 -2.75 0.25 -3.50 1 -0.55 0.55 -1 1.15 -1 1.40 0 0.85 -4.60 2.20 -5.85 1.75z"/>
  <path d="M237.15 165.90 c-0.80 -1.20 -2.10 -2.60 -2.95 -3.15 -0.80 -0.50 -1.95 -1.65 -2.45 -2.50 -1.10 -1.60 -5 -3.80 -9 -5 l-2.50 -0.70 2.65 0.15 c3.80 0.25 10.70 3.85 12.60 6.55 1.75 2.55 3.65 6.30 3.35 6.60 -0.15 0.10 -0.90 -0.75 -1.70 -1.95z"/>
  <path d="M199 165.80 c0 -0.20 0.55 -1.20 1.20 -2.25 2.55 -4 8.50 -8.05 13 -8.85 2.40 -0.40 2.10 0.55 -0.35 1.05 -3.95 0.85 -8.05 3.60 -11.70 7.85 -1.20 1.35 -2.15 2.35 -2.15 2.20z"/>
  <path d="M239.50 147.65 c-0.40 -0.15 -2.55 -1.10 -4.75 -2.15 -3.80 -1.80 -7.80 -3.05 -11.85 -3.75 -1.25 -0.20 -1.90 -0.55 -1.90 -1.10 0 -0.65 0.55 -0.75 4.15 -0.40 2.25 0.15 5 0.50 6.10 0.65 2.65 0.45 4.85 0.20 4.60 -0.55 -0.45 -1.45 -10.65 -4.80 -14.70 -4.85 -1.80 0 -2.15 -0.15 -2.15 -1 0 -1.25 1.35 -1.30 7.05 -0.20 4.30 0.80 11.65 3.55 14 5.25 3.85 2.75 6.20 6.45 4.10 6.45 -0.50 0 -1.25 0.45 -1.65 1 -0.70 1 -1.55 1.15 -3 0.65z"/>
  <path d="M200.65 144.95 c-0.65 -0.65 -2.65 -1 -2.65 -0.40 0 0.25 -0.40 0.45 -0.85 0.45 -0.80 0 -0.80 -0.10 -0.15 -0.50 0.55 -0.40 0.45 -0.45 -0.50 -0.25 -0.95 0.20 -1.55 0 -2.20 -0.70 -0.85 -0.95 -0.85 -1.05 -0.15 -1.05 0.50 0 0.85 -0.30 0.85 -0.70 0 -2 8.85 -6.25 15.90 -7.60 4.95 -0.95 5.60 -0.90 5.60 0.30 0 0.80 -0.35 1 -1.65 1 -0.95 0 -3.55 0.55 -5.85 1.25 -2.30 0.70 -4.60 1.25 -5.10 1.25 -0.50 0 -0.90 0.20 -0.90 0.40 0 0.25 -0.60 0.70 -1.35 1.05 -1.25 0.60 -1.30 0.65 -0.45 1.15 0.90 0.50 5.20 0.35 11.20 -0.40 2.15 -0.25 2.60 -0.20 2.60 0.45 0 0.45 -0.65 0.90 -1.60 1.10 -2.95 0.60 -8.65 2.25 -9.60 2.80 -1.35 0.80 -2.60 0.95 -3.15 0.40z"/>
 </g>
 <g fill="#ece9eb">
  <path d="M214.20 209.95 c-1.70 -0.20 -4.05 -0.65 -5.25 -0.95 -2.90 -0.80 -8.95 -3.85 -8.95 -4.55 0 -0.30 0.30 -0.45 0.65 -0.30 6.45 2.80 8.50 3.55 11.75 4.15 7.30 1.45 15.20 0.10 22.45 -3.90 4.25 -2.30 5.65 -2.30 2.85 0.05 -4.55 3.85 -15.90 6.50 -23.50 5.50z"/>
  <path d="M219 174.60 c0 -2.10 2.65 -5.90 4.85 -7.05 3.45 -1.75 8.40 -1.60 10.65 0.30 l1.60 1.35 -1.05 0.85 c-0.60 0.50 -2.60 1.35 -4.45 2 -1.85 0.60 -3.90 1.50 -4.60 1.95 -1.55 1.05 -4.30 2 -5.80 2 -1 0 -1.20 -0.25 -1.20 -1.40z m5.60 -3 c1.75 -0.80 3.90 -1.75 4.80 -2.15 1.80 -0.75 2.10 -1.45 0.65 -1.45 -2.65 0 -5.55 0.70 -5.55 1.30 0 0.40 -0.35 0.70 -0.75 0.70 -0.40 0 -0.75 0.35 -0.75 0.75 0 0.40 -0.45 0.75 -1 0.75 -0.55 0 -1 0.35 -1 0.75 0 1 -0.05 1 3.60 -0.65z"/>
  <path d="M235.35 163.80 c-1.60 -1.70 -3.20 -3.55 -3.60 -4.15 -0.45 -0.60 -2.30 -1.80 -4.15 -2.70 -4.60 -2.20 -10.40 -2.55 -15.50 -1 -3.45 1.05 -8.15 3.80 -9.65 5.75 -0.45 0.60 -1.30 1.60 -1.90 2.30 -1.10 1.20 -1.10 1.20 -0.55 0.10 0.95 -1.90 3.90 -4.90 6.40 -6.50 3.80 -2.45 7.40 -3.25 13.55 -3 5.25 0.15 5.35 0.20 9.70 2.55 3.10 1.70 4.85 3.05 5.90 4.50 1.65 2.25 3.15 4.85 2.85 5.05 -0.10 0.05 -1.45 -1.25 -3.05 -2.90z"/>
  <path d="M202.25 142.55 c-7.60 -1 -5.30 -4.25 5.25 -7.35 8.15 -2.40 17.75 -1.85 25.75 1.40 3.10 1.30 6.25 3.50 6.25 4.45 0 1.35 -6.35 2.05 -11.50 1.25 -4.95 -0.75 -13.85 -0.90 -16.55 -0.30 -3.50 0.80 -6.10 0.95 -9.20 0.55z m23.95 -5.55 c-0.85 -0.85 -6.75 -1.60 -10.20 -1.30 -8.45 0.80 -6.60 1.70 3.50 1.75 4.90 0.05 7.05 -0.10 6.70 -0.45z"/>
 </g>
 <g fill="#fafafc">
  <path d="M212.40 209.65 c-0.80 -0.10 -1.40 -0.35 -1.40 -0.55 0 -0.30 14.15 -0.35 15 -0.05 0.15 0.05 -0.65 0.25 -1.75 0.50 -2.05 0.40 -9.40 0.45 -11.85 0.10z"/>
  <path d="M209 208.55 c0 -0.25 -0.40 -0.35 -0.85 -0.25 -0.50 0.15 -1.35 -0.10 -1.90 -0.50 -0.80 -0.65 -0.85 -0.75 -0.20 -0.80 1.25 0 3.95 1.05 3.95 1.55 0 0.25 -0.20 0.45 -0.50 0.45 -0.25 0 -0.50 -0.20 -0.50 -0.45z"/>
  <path d="M228 208 c0 -0.25 0.60 -0.65 1.40 -0.80 0.75 -0.20 1.65 -0.55 2 -0.85 0.30 -0.25 0.60 -0.30 0.60 -0.05 0 0.50 -2.80 2.20 -3.55 2.20 -0.25 0 -0.45 -0.20 -0.45 -0.50z"/>
  <path d="M235.30 204.25 c1.25 -0.95 2 -0.95 1 0 -0.40 0.40 -1 0.75 -1.35 0.75 -0.35 0 -0.20 -0.30 0.35 -0.75z"/>
  <path d="M219.20 173.70 c0.60 -2.40 2.80 -5.10 5 -6.20 2.80 -1.35 7.50 -1.35 9.45 -0.05 l1.45 0.90 -1.45 1 c-0.75 0.55 -2.20 1.35 -3.15 1.75 -0.95 0.45 -3.10 1.40 -4.75 2.15 -1.65 0.75 -3.90 1.50 -4.95 1.65 -1.95 0.25 -1.95 0.25 -1.60 -1.20z"/>
  <path d="M201.60 162 c3.25 -4.05 9.80 -7.60 13.95 -7.45 0.65 0 -0.10 0.35 -1.65 0.75 -4.25 1 -7.80 2.95 -11.10 6.10 -2.90 2.75 -2.95 2.80 -1.20 0.60z"/>
  <path d="M235.50 163.15 c0 -0.25 -0.70 -0.80 -1.50 -1.25 -0.85 -0.45 -1.50 -1.20 -1.50 -1.65 0 -0.90 0.55 -0.95 1.55 -0.10 1.15 0.90 2.55 3.35 1.95 3.35 -0.25 0 -0.50 -0.15 -0.50 -0.35z"/>
  <path d="M221.50 155 l-2.25 -0.35 2 -0.05 c1.10 0 2.45 0.15 3 0.40 1.15 0.50 0.45 0.50 -2.75 0z"/>
  <path d="M215 139 c-4 -0.20 -8 -0.35 -8.90 -0.30 -0.85 0.05 -1.60 -0.10 -1.60 -0.35 0 -0.20 -0.25 -0.25 -0.55 -0.05 -0.40 0.20 -0.40 0.05 -0.05 -0.65 0.35 -0.60 2 -1.40 4.45 -2.20 5.55 -1.70 14.65 -1.70 20.15 0.05 6.10 1.90 7.10 3.60 2.10 3.50 -1.60 0 -4.10 0.05 -5.60 0.15 -1.50 0.10 -6 0.05 -10 -0.15z"/>
 </g>
</svg>